<?xml version="1.0" encoding="utf-8" ?>
<svg baseProfile="tiny" height="688" version="1.2" width="561" xmlns="http://www.w3.org/2000/svg" xmlns:ev="http://www.w3.org/2001/xml-events" xmlns:xlink="http://www.w3.org/1999/xlink"><defs /><path d="M 103,584 L 103,585 L 102,586 L 102,621 L 101,622 L 94,622 L 94,639 L 183,639 L 184,640 L 184,651 L 365,651 L 365,640 L 366,639 L 455,639 L 455,622 L 449,622 L 448,621 L 448,586 L 447,586 L 446,585 L 446,584 L 446,585 L 445,586 L 437,586 L 436,585 L 436,584 L 423,584 L 423,585 L 422,586 L 419,586 L 418,585 L 418,584 L 411,584 L 411,585 L 410,586 L 407,586 L 406,585 L 406,584 L 393,584 L 393,585 L 392,586 L 391,585 L 391,584 L 390,584 L 390,585 L 389,586 L 387,586 L 386,585 L 386,584 L 384,584 L 384,585 L 383,586 L 382,585 L 382,584 L 375,584 L 375,585 L 374,586 L 373,585 L 373,584 L 365,584 L 365,585 L 364,586 L 362,586 L 361,585 L 361,584 L 360,584 L 360,585 L 359,586 L 357,586 L 356,585 L 356,584 L 356,585 L 355,586 L 351,586 L 350,585 L 350,584 L 327,584 L 327,585 L 326,586 L 323,586 L 322,585 L 322,584 L 312,584 L 312,585 L 311,586 L 306,586 L 305,585 L 305,584 L 305,585 L 304,586 L 302,586 L 301,585 L 301,584 L 300,584 L 300,585 L 299,586 L 298,585 L 298,584 L 294,584 L 294,585 L 293,586 L 291,586 L 290,585 L 290,584 L 279,584 L 279,585 L 278,586 L 277,585 L 277,584 L 269,584 L 269,585 L 268,586 L 267,586 L 266,585 L 266,584 L 264,584 L 264,585 L 263,586 L 260,586 L 259,585 L 259,584 L 235,584 L 235,585 L 234,586 L 233,585 L 233,584 L 225,584 L 225,585 L 224,586 L 223,586 L 222,585 L 222,584 L 210,584 L 210,585 L 209,586 L 208,586 L 207,585 L 207,584 L 187,584 L 187,585 L 186,586 L 184,586 L 183,585 L 183,584 L 171,584 L 171,585 L 170,586 L 169,586 L 168,585 L 168,584 L 168,585 L 167,586 L 163,586 L 162,585 L 162,584 L 160,584 L 160,585 L 159,586 L 154,586 L 153,585 L 153,584 L 141,584 L 141,585 L 140,586 L 138,586 L 137,585 L 137,584 L 133,584 L 133,585 L 132,586 L 131,585 L 131,584 L 129,584 L 129,585 L 128,586 L 127,586 L 126,585 L 126,584 L 117,584 L 117,585 L 116,586 L 114,586 L 113,585 L 113,584 L 108,584 L 108,585 L 107,586 L 106,586 L 105,585 L 105,584 Z" fill="#555555" /><path d="M 398,392 L 398,397 L 399,398 L 399,400 L 400,400 L 401,401 L 403,401 L 404,402 L 404,409 L 403,410 L 402,410 L 402,446 L 401,447 L 401,499 L 400,500 L 399,500 L 399,532 L 398,533 L 398,561 L 397,562 L 396,562 L 395,563 L 395,564 L 394,565 L 393,565 L 393,573 L 442,573 L 442,565 L 441,565 L 440,564 L 440,563 L 439,562 L 438,562 L 437,561 L 437,505 L 436,504 L 436,470 L 435,470 L 434,469 L 434,413 L 433,412 L 433,402 L 435,400 L 437,400 L 437,392 Z" fill="#555555" /><path d="M 327,392 L 327,400 L 329,400 L 330,401 L 331,401 L 332,402 L 332,422 L 331,423 L 330,423 L 330,481 L 329,482 L 329,517 L 328,518 L 327,518 L 327,558 L 326,559 L 326,561 L 325,562 L 324,562 L 323,563 L 323,573 L 371,573 L 371,565 L 370,564 L 370,563 L 369,563 L 367,561 L 367,517 L 366,517 L 365,516 L 365,479 L 364,478 L 364,440 L 363,440 L 362,439 L 362,402 L 363,401 L 365,401 L 366,400 L 367,400 L 367,398 L 368,397 L 368,392 Z" fill="#555555" /><path d="M 255,392 L 255,398 L 256,398 L 257,399 L 257,400 L 259,400 L 261,402 L 261,412 L 260,413 L 260,451 L 259,452 L 258,452 L 258,501 L 257,502 L 257,538 L 256,539 L 255,539 L 255,561 L 253,563 L 252,563 L 252,565 L 251,566 L 251,573 L 301,573 L 301,566 L 300,566 L 299,565 L 299,563 L 298,562 L 297,562 L 296,561 L 296,541 L 295,540 L 295,491 L 294,491 L 293,490 L 293,458 L 292,457 L 292,404 L 291,404 L 290,403 L 290,402 L 291,401 L 293,401 L 294,400 L 295,400 L 295,399 L 296,398 L 296,392 Z" fill="#555555" /><path d="M 184,392 L 184,398 L 185,398 L 186,399 L 186,400 L 188,400 L 189,401 L 189,431 L 188,432 L 187,432 L 187,484 L 186,485 L 186,523 L 185,524 L 184,524 L 184,561 L 183,562 L 181,562 L 180,563 L 180,568 L 179,569 L 178,569 L 178,571 L 179,571 L 180,572 L 180,573 L 230,573 L 230,568 L 229,568 L 228,567 L 228,563 L 227,562 L 225,562 L 224,561 L 224,503 L 223,503 L 222,502 L 222,470 L 221,469 L 221,419 L 220,419 L 219,418 L 219,402 L 220,401 L 221,401 L 222,400 L 224,400 L 224,398 L 225,397 L 225,392 Z" fill="#555555" /><path d="M 112,392 L 112,397 L 113,397 L 114,398 L 114,400 L 116,400 L 118,402 L 118,415 L 117,416 L 117,470 L 116,471 L 115,471 L 115,505 L 114,506 L 114,541 L 113,542 L 112,542 L 112,561 L 110,563 L 109,563 L 109,564 L 108,565 L 108,573 L 158,573 L 158,566 L 157,566 L 156,565 L 156,563 L 155,562 L 154,562 L 153,561 L 153,536 L 152,535 L 152,496 L 151,496 L 150,495 L 150,458 L 149,457 L 149,401 L 150,400 L 152,400 L 152,399 L 153,398 L 153,392 Z" fill="#555555" /><path d="M 106,365 L 106,380 L 311,380 L 312,379 L 325,379 L 326,380 L 443,380 L 443,365 Z" fill="#555555" /><path d="M 275,243 L 275,244 L 274,245 L 272,245 L 271,246 L 269,246 L 269,247 L 268,248 L 266,248 L 265,249 L 263,249 L 263,250 L 262,251 L 261,251 L 260,252 L 258,252 L 258,253 L 257,254 L 255,254 L 254,255 L 252,255 L 252,256 L 251,257 L 249,257 L 248,258 L 248,259 L 247,260 L 243,260 L 242,261 L 241,261 L 241,262 L 240,263 L 238,263 L 237,264 L 235,264 L 235,265 L 234,266 L 232,266 L 231,267 L 229,267 L 229,268 L 228,269 L 226,269 L 225,270 L 223,270 L 223,271 L 221,273 L 219,273 L 219,274 L 218,275 L 216,275 L 215,276 L 213,276 L 213,277 L 212,278 L 210,278 L 209,279 L 208,279 L 208,280 L 207,281 L 204,281 L 203,282 L 202,282 L 202,283 L 201,284 L 199,284 L 198,285 L 196,285 L 196,286 L 195,287 L 193,287 L 192,288 L 190,288 L 190,289 L 189,290 L 187,290 L 186,291 L 184,291 L 184,292 L 182,294 L 180,294 L 180,295 L 179,296 L 177,296 L 176,297 L 174,297 L 174,298 L 173,299 L 171,299 L 170,300 L 169,300 L 169,301 L 168,302 L 165,302 L 164,303 L 163,303 L 163,304 L 162,305 L 160,305 L 159,306 L 157,306 L 157,307 L 156,308 L 154,308 L 153,309 L 151,309 L 151,310 L 150,311 L 148,311 L 147,312 L 147,313 L 146,314 L 144,314 L 143,315 L 141,315 L 141,316 L 140,317 L 138,317 L 137,318 L 135,318 L 135,319 L 134,320 L 132,320 L 131,321 L 130,321 L 130,322 L 129,323 L 127,323 L 126,324 L 124,324 L 124,325 L 123,326 L 121,326 L 120,327 L 118,327 L 118,328 L 117,329 L 115,329 L 114,330 L 114,331 L 113,332 L 112,332 L 112,352 L 437,352 L 437,330 L 435,330 L 433,328 L 433,327 L 429,327 L 427,325 L 427,324 L 425,324 L 424,323 L 422,323 L 421,322 L 421,321 L 419,321 L 418,320 L 416,320 L 415,319 L 415,318 L 413,318 L 412,317 L 410,317 L 409,316 L 409,315 L 408,315 L 407,314 L 405,314 L 404,313 L 404,312 L 402,312 L 401,311 L 399,311 L 398,310 L 398,309 L 396,309 L 395,308 L 393,308 L 392,307 L 392,306 L 390,306 L 389,305 L 387,305 L 386,304 L 386,303 L 385,302 L 383,302 L 382,301 L 382,300 L 380,300 L 379,299 L 377,299 L 376,298 L 376,297 L 374,297 L 373,296 L 371,296 L 370,295 L 370,294 L 368,294 L 367,293 L 366,293 L 365,292 L 365,291 L 363,291 L 362,290 L 360,290 L 359,289 L 359,288 L 357,288 L 356,287 L 354,287 L 353,286 L 353,285 L 351,285 L 350,284 L 348,284 L 347,283 L 347,282 L 346,281 L 342,281 L 341,280 L 341,279 L 340,278 L 338,278 L 337,277 L 337,276 L 335,276 L 334,275 L 332,275 L 331,274 L 331,273 L 329,273 L 328,272 L 327,272 L 326,271 L 326,270 L 323,270 L 322,269 L 321,269 L 320,268 L 320,267 L 318,267 L 317,266 L 315,266 L 314,265 L 314,264 L 312,264 L 311,263 L 309,263 L 308,262 L 308,261 L 306,261 L 305,260 L 303,260 L 302,259 L 302,258 L 301,257 L 297,257 L 296,256 L 296,255 L 295,254 L 293,254 L 292,253 L 292,252 L 290,252 L 289,251 L 287,251 L 286,250 L 286,249 L 284,249 L 283,248 L 281,248 L 280,247 L 280,246 L 278,246 L 277,245 L 276,245 L 275,244 Z" fill="#555555" /><path d="M 273,205 L 273,206 L 272,207 L 270,207 L 269,208 L 269,209 L 268,210 L 264,210 L 263,211 L 263,212 L 262,213 L 260,213 L 259,214 L 257,214 L 257,215 L 256,216 L 255,216 L 254,217 L 251,217 L 251,218 L 250,219 L 249,219 L 248,220 L 246,220 L 246,221 L 245,222 L 243,222 L 242,223 L 240,223 L 240,224 L 239,225 L 237,225 L 237,226 L 236,227 L 234,227 L 233,228 L 231,228 L 231,229 L 230,230 L 229,230 L 228,231 L 225,231 L 225,232 L 224,233 L 223,233 L 222,234 L 220,234 L 220,235 L 219,236 L 217,236 L 216,237 L 216,238 L 215,239 L 211,239 L 210,240 L 210,241 L 209,242 L 207,242 L 206,243 L 204,243 L 204,244 L 203,245 L 201,245 L 200,246 L 198,246 L 198,247 L 197,248 L 195,248 L 194,249 L 192,249 L 192,250 L 191,251 L 190,251 L 189,252 L 187,252 L 187,253 L 186,254 L 184,254 L 183,255 L 181,255 L 181,256 L 180,257 L 178,257 L 177,258 L 177,259 L 176,260 L 172,260 L 171,261 L 171,262 L 170,263 L 168,263 L 167,264 L 165,264 L 165,265 L 164,266 L 162,266 L 161,267 L 159,267 L 159,268 L 158,269 L 156,269 L 155,270 L 153,270 L 153,271 L 152,272 L 151,272 L 150,273 L 148,273 L 148,274 L 147,275 L 145,275 L 144,276 L 142,276 L 142,277 L 141,278 L 139,278 L 138,279 L 138,280 L 137,281 L 133,281 L 132,282 L 132,283 L 131,284 L 129,284 L 128,285 L 126,285 L 126,286 L 125,287 L 123,287 L 122,288 L 120,288 L 120,289 L 119,290 L 117,290 L 116,291 L 114,291 L 114,292 L 113,293 L 111,293 L 110,294 L 109,294 L 109,295 L 108,296 L 106,296 L 105,297 L 103,297 L 103,298 L 102,299 L 100,299 L 99,300 L 97,300 L 97,301 L 96,302 L 94,302 L 93,303 L 91,303 L 91,305 L 92,305 L 93,306 L 93,307 L 94,308 L 95,308 L 96,309 L 96,310 L 97,311 L 98,311 L 99,312 L 99,314 L 100,315 L 100,316 L 101,316 L 103,318 L 103,319 L 104,319 L 105,320 L 106,319 L 108,319 L 108,318 L 109,317 L 111,317 L 112,316 L 114,316 L 114,315 L 115,314 L 117,314 L 118,313 L 120,313 L 120,312 L 121,311 L 122,311 L 123,310 L 125,310 L 125,309 L 126,308 L 128,308 L 129,307 L 131,307 L 131,306 L 132,305 L 134,305 L 135,304 L 137,304 L 137,303 L 139,301 L 141,301 L 141,300 L 142,299 L 144,299 L 145,298 L 147,298 L 147,297 L 148,296 L 150,296 L 151,295 L 153,295 L 153,294 L 154,293 L 156,293 L 157,292 L 159,292 L 159,291 L 160,290 L 161,290 L 162,289 L 164,289 L 164,288 L 165,287 L 167,287 L 168,286 L 170,286 L 170,285 L 171,284 L 173,284 L 174,283 L 176,283 L 176,282 L 177,281 L 179,281 L 180,280 L 180,279 L 181,278 L 183,278 L 184,277 L 186,277 L 186,276 L 187,275 L 189,275 L 190,274 L 192,274 L 192,273 L 193,272 L 194,272 L 195,271 L 198,271 L 198,270 L 199,269 L 200,269 L 201,268 L 203,268 L 203,267 L 204,266 L 206,266 L 207,265 L 209,265 L 209,264 L 210,263 L 212,263 L 213,262 L 213,261 L 214,260 L 218,260 L 219,259 L 219,258 L 220,257 L 222,257 L 223,256 L 225,256 L 225,255 L 226,254 L 228,254 L 229,253 L 231,253 L 231,252 L 232,251 L 233,251 L 234,250 L 237,250 L 237,249 L 238,248 L 239,248 L 240,247 L 242,247 L 242,246 L 243,245 L 245,245 L 246,244 L 248,244 L 248,243 L 249,242 L 251,242 L 252,241 L 253,241 L 253,240 L 254,239 L 257,239 L 258,238 L 259,238 L 259,237 L 260,236 L 262,236 L 263,235 L 265,235 L 265,234 L 266,233 L 268,233 L 269,232 L 271,232 L 271,231 L 273,229 L 275,229 L 276,230 L 278,230 L 279,231 L 279,232 L 281,232 L 282,233 L 284,233 L 285,234 L 285,235 L 287,235 L 288,236 L 290,236 L 291,237 L 291,238 L 292,238 L 293,239 L 295,239 L 296,240 L 296,241 L 298,241 L 299,242 L 301,242 L 302,243 L 302,244 L 304,244 L 305,245 L 307,245 L 308,246 L 308,247 L 310,247 L 312,249 L 312,250 L 314,250 L 315,251 L 317,251 L 318,252 L 318,253 L 320,253 L 321,254 L 323,254 L 324,255 L 324,256 L 326,256 L 327,257 L 329,257 L 330,258 L 330,259 L 331,259 L 332,260 L 335,260 L 336,261 L 336,262 L 337,262 L 338,263 L 340,263 L 341,264 L 341,265 L 343,265 L 344,266 L 346,266 L 347,267 L 347,268 L 349,268 L 350,269 L 352,269 L 353,270 L 353,271 L 355,271 L 356,272 L 358,272 L 359,273 L 359,274 L 360,275 L 362,275 L 363,276 L 363,277 L 365,277 L 366,278 L 368,278 L 369,279 L 369,280 L 371,280 L 372,281 L 374,281 L 375,282 L 375,283 L 377,283 L 378,284 L 379,284 L 380,285 L 380,286 L 382,286 L 383,287 L 385,287 L 386,288 L 386,289 L 388,289 L 389,290 L 391,290 L 392,291 L 392,292 L 394,292 L 395,293 L 397,293 L 398,294 L 398,295 L 399,296 L 403,296 L 404,297 L 404,298 L 405,299 L 407,299 L 408,300 L 408,301 L 410,301 L 411,302 L 413,302 L 414,303 L 414,304 L 416,304 L 417,305 L 418,305 L 419,306 L 419,307 L 422,307 L 423,308 L 424,308 L 425,309 L 425,310 L 427,310 L 428,311 L 430,311 L 431,312 L 431,313 L 433,313 L 434,314 L 436,314 L 437,315 L 437,316 L 439,316 L 440,317 L 442,317 L 443,318 L 443,319 L 444,320 L 446,320 L 447,319 L 448,319 L 448,317 L 449,316 L 449,315 L 450,314 L 451,314 L 452,313 L 452,311 L 453,310 L 455,310 L 455,308 L 456,307 L 457,307 L 457,306 L 458,305 L 458,303 L 456,303 L 455,302 L 453,302 L 452,301 L 452,300 L 450,300 L 449,299 L 447,299 L 446,298 L 446,297 L 445,296 L 441,296 L 440,295 L 440,294 L 439,293 L 437,293 L 436,292 L 436,291 L 434,291 L 433,290 L 431,290 L 430,289 L 430,288 L 428,288 L 427,287 L 425,287 L 424,286 L 424,285 L 422,285 L 421,284 L 420,284 L 419,283 L 419,282 L 417,282 L 416,281 L 414,281 L 413,280 L 413,279 L 411,279 L 410,278 L 408,278 L 407,277 L 407,276 L 405,276 L 404,275 L 402,275 L 401,274 L 401,273 L 399,273 L 397,271 L 397,270 L 393,270 L 391,268 L 391,267 L 389,267 L 388,266 L 386,266 L 385,265 L 385,264 L 383,264 L 382,263 L 380,263 L 379,262 L 379,261 L 378,261 L 377,260 L 374,260 L 373,259 L 373,258 L 372,258 L 371,257 L 368,257 L 367,256 L 367,255 L 366,255 L 365,254 L 363,254 L 362,253 L 362,252 L 360,252 L 359,251 L 357,251 L 356,250 L 356,249 L 354,249 L 352,247 L 352,246 L 350,246 L 349,245 L 347,245 L 346,244 L 346,243 L 344,243 L 343,242 L 341,242 L 340,241 L 340,240 L 338,240 L 337,239 L 335,239 L 334,238 L 334,237 L 332,237 L 331,236 L 330,236 L 329,235 L 329,234 L 327,234 L 326,233 L 324,233 L 323,232 L 323,231 L 321,231 L 320,230 L 318,230 L 317,229 L 317,228 L 315,228 L 314,227 L 312,227 L 311,226 L 311,225 L 309,225 L 308,224 L 308,223 L 306,223 L 304,221 L 304,220 L 300,220 L 298,218 L 298,217 L 296,217 L 295,216 L 293,216 L 292,215 L 292,214 L 290,214 L 289,213 L 287,213 L 286,212 L 286,211 L 285,211 L 284,210 L 281,210 L 280,209 L 280,208 L 279,208 L 278,207 L 276,207 L 275,206 L 275,205 Z" fill="#555555" /><path d="M 305,72 L 304,73 L 300,73 L 300,74 L 299,75 L 299,80 L 300,81 L 301,81 L 302,82 L 302,84 L 303,85 L 303,86 L 304,86 L 305,87 L 305,89 L 306,90 L 306,92 L 307,92 L 308,93 L 308,96 L 309,97 L 309,99 L 310,99 L 311,100 L 311,105 L 312,106 L 312,120 L 311,121 L 311,126 L 310,127 L 309,127 L 309,129 L 308,130 L 308,135 L 307,136 L 306,136 L 306,137 L 305,138 L 305,140 L 304,141 L 303,141 L 302,142 L 302,144 L 301,145 L 300,145 L 300,146 L 299,147 L 299,152 L 300,153 L 301,153 L 302,154 L 302,155 L 307,155 L 307,153 L 308,152 L 310,152 L 310,151 L 311,150 L 311,148 L 312,147 L 313,147 L 314,146 L 314,144 L 315,143 L 316,143 L 316,142 L 317,141 L 317,138 L 318,137 L 319,137 L 319,135 L 320,134 L 320,132 L 321,131 L 322,131 L 322,123 L 323,122 L 323,105 L 322,104 L 322,96 L 321,96 L 320,95 L 320,93 L 319,92 L 319,90 L 318,90 L 317,89 L 317,85 L 316,84 L 315,84 L 314,83 L 314,81 L 313,80 L 313,78 L 312,78 L 311,77 L 311,76 L 310,75 L 310,73 L 306,73 Z" fill="#555555" /><path d="M 323,55 L 323,56 L 322,57 L 318,57 L 318,63 L 319,63 L 320,64 L 320,65 L 321,66 L 322,66 L 323,67 L 323,69 L 324,70 L 324,71 L 325,71 L 326,72 L 326,75 L 327,76 L 327,77 L 328,77 L 329,78 L 329,80 L 330,81 L 330,83 L 331,83 L 332,84 L 332,86 L 333,87 L 333,90 L 334,90 L 335,91 L 335,95 L 336,96 L 336,104 L 337,104 L 338,105 L 338,123 L 337,124 L 336,124 L 336,131 L 335,132 L 335,135 L 334,136 L 333,136 L 333,141 L 332,142 L 332,144 L 331,145 L 330,145 L 330,146 L 329,147 L 329,150 L 328,151 L 327,151 L 327,152 L 326,153 L 326,155 L 325,156 L 324,156 L 323,157 L 323,158 L 322,159 L 321,159 L 321,161 L 319,163 L 318,163 L 318,170 L 319,170 L 320,171 L 326,171 L 327,170 L 328,170 L 328,168 L 329,167 L 331,167 L 331,166 L 332,165 L 332,163 L 333,162 L 334,162 L 335,161 L 335,159 L 336,158 L 337,158 L 337,156 L 338,155 L 338,153 L 339,152 L 340,152 L 340,151 L 341,150 L 341,148 L 342,147 L 343,147 L 343,144 L 344,143 L 344,141 L 345,140 L 346,140 L 346,135 L 347,134 L 347,129 L 348,128 L 349,128 L 349,97 L 348,97 L 347,96 L 347,93 L 346,92 L 346,87 L 345,87 L 344,86 L 344,82 L 343,81 L 343,78 L 342,78 L 341,77 L 341,76 L 340,75 L 340,73 L 339,73 L 338,72 L 338,70 L 337,69 L 337,67 L 336,67 L 335,66 L 335,64 L 334,63 L 333,63 L 332,62 L 332,60 L 330,60 L 329,59 L 329,57 L 327,57 L 326,56 L 326,55 Z" fill="#555555" /><path d="M 267,36 L 266,37 L 266,38 L 265,39 L 263,39 L 262,40 L 261,40 L 261,41 L 260,42 L 258,42 L 258,44 L 257,45 L 255,45 L 254,46 L 254,47 L 253,48 L 252,48 L 251,49 L 251,50 L 250,51 L 248,51 L 247,52 L 246,52 L 246,53 L 245,54 L 244,54 L 243,55 L 243,56 L 242,57 L 241,57 L 240,58 L 240,59 L 239,60 L 237,60 L 236,61 L 235,61 L 235,62 L 234,63 L 232,63 L 231,64 L 231,65 L 230,66 L 229,66 L 228,67 L 226,67 L 226,69 L 225,70 L 223,70 L 223,71 L 221,73 L 220,73 L 220,74 L 218,76 L 216,76 L 216,77 L 215,78 L 214,78 L 213,79 L 213,80 L 212,81 L 205,81 L 204,82 L 175,82 L 175,83 L 173,85 L 172,85 L 172,86 L 171,87 L 171,89 L 170,90 L 169,90 L 169,138 L 170,138 L 171,139 L 171,141 L 172,142 L 172,144 L 174,144 L 175,145 L 175,146 L 179,146 L 180,147 L 210,147 L 211,148 L 211,149 L 212,149 L 213,150 L 215,150 L 216,151 L 216,152 L 218,152 L 220,154 L 220,155 L 221,155 L 223,157 L 223,158 L 225,158 L 226,159 L 226,161 L 228,161 L 229,162 L 230,162 L 231,163 L 231,164 L 232,165 L 233,165 L 234,166 L 234,167 L 236,167 L 238,169 L 238,170 L 240,170 L 241,171 L 242,171 L 243,172 L 243,173 L 244,174 L 245,174 L 246,175 L 246,176 L 247,176 L 248,177 L 250,177 L 251,178 L 251,179 L 252,180 L 253,180 L 254,181 L 254,182 L 255,183 L 257,183 L 258,184 L 258,186 L 260,186 L 261,187 L 261,188 L 263,188 L 264,189 L 265,189 L 266,190 L 266,191 L 268,191 L 269,192 L 272,192 L 273,191 L 275,191 L 275,190 L 276,189 L 277,189 L 278,188 L 278,187 L 279,186 L 280,186 L 280,40 L 279,40 L 277,38 L 277,37 L 276,37 L 275,36 Z" fill="#555555" /></svg>