<svg xmlns="http://www.w3.org/2000/svg" xmlns:ns1="http://www.w3.org/1999/xlink" version="1.0" id="Layer_1" x="0px" y="0px" viewBox="0 0 354 260" style="enable-background:new 0 0 354 260;;fill:#ffffff" xml:space="preserve" fill="#ffffff">
<style type="text/css" fill="#ffffff" style="fill:#ffffff">
	.st0{clip-path:url(#SVGID_2_);}
	.st1{fill:#0F2C90;}
</style>
<g fill="#ffffff" style="fill:#ffffff">
	<defs fill="#ffffff" style="fill:#ffffff">
		<rect id="SVGID_1_" x="90.6" y="42.2" width="172.9" height="175.5" fill="#ffffff" style="fill:#ffffff" />
	</defs>
	<clipPath id="SVGID_2_" fill="#ffffff" style="fill:#ffffff">
		<use ns1:href="#SVGID_1_" style="overflow:visible;;fill:#ffffff" fill="#ffffff" />
	</clipPath>
	<g class="st0" fill="#ffffff" style="fill:#ffffff">
		<path class="st1" d="M163.3,181.5c0-0.7,0-1.4,0-2c0-0.2,0-0.4,0-0.5c0-0.1,0-0.1,0-0.2c0.1,0,0.1-0.1,0.2-0.1    c0.2-0.1,0.4-0.1,0.6-0.1c0.2,0,0.4,0,0.6-0.1c0.3-0.1,0.5-0.4,0.5-0.7c0-0.2-0.1-0.4-0.2-0.5l-0.1-0.1h-1.7h-0.6    c-0.4,0.1-0.9,0.1-1.3,0c-0.3,0-0.7-0.1-1-0.1h-0.2h-0.4c-0.3,0-0.6,0.3-0.6,0.6c0,0.3,0.2,0.6,0.4,0.7c0.2,0.1,0.4,0.1,0.6,0.1    l0.5,0.1c0.1,0,0.1,0,0.2,0.1c0,0.1,0.1,0.2,0.1,0.3c0,0.2,0,0.4,0,0.6v0.3c0,0.3,0,0.6,0,0.9s0,0.6,0,0.9v1.7c0,0.2,0,0.4,0,0.7    c0,0.2-0.1,0.2-0.1,0.2c-0.1,0.1-0.2,0.1-0.2,0.1l-0.5,0.1c-0.2,0-0.3,0.1-0.5,0.1c-0.3,0.1-0.5,0.4-0.5,0.6    c0,0.3,0.2,0.6,0.5,0.7c0.2,0.1,0.3,0.1,0.5,0.1h0.2h0.5l0.4-0.1h0.3c0.5,0,0.9,0,1.4,0c0.5,0.1,1.1,0.1,1.6,0    c0.4,0,0.7-0.3,0.7-0.7c0-0.3-0.2-0.6-0.5-0.6c-0.2-0.1-0.3-0.1-0.5-0.1l-0.5-0.1c-0.1,0-0.2,0-0.2-0.1c-0.1,0-0.1-0.1-0.1-0.2    c0-0.1,0-0.3-0.1-0.4v-0.2C163.3,182.8,163.3,182.1,163.3,181.5" fill="#ffffff" style="fill:#ffffff" />
		<path class="st1" d="M174.7,184.7c0.4-0.4,0.7-1,0.9-1.5c0.2-0.6,0.3-1.2,0.3-1.8c0-0.5-0.1-1.1-0.2-1.6c-0.2-0.5-0.4-0.9-0.8-1.3    c-0.3-0.4-0.7-0.7-1.2-0.9c-0.8-0.3-1.8-0.4-2.6-0.2c-0.3,0.1-0.6,0.2-0.9,0.4l-0.2,0.1c0.2-0.5,0.4-1,0.7-1.5    c0.5-0.8,1.1-1.6,1.9-2.2c0.2-0.1,0.3-0.3,0.5-0.4c0.2-0.1,0.3-0.2,0.5-0.4l0.2-0.1c0.1,0,0.2-0.1,0.4-0.2    c0.1-0.1,0.3-0.2,0.4-0.2c0.2-0.1,0.3-0.3,0.3-0.5c0-0.2-0.1-0.4-0.2-0.5c-0.1-0.1-0.2-0.1-0.3-0.2l-0.1-0.1H174    c-0.2,0-0.4,0.1-0.6,0.2l-0.5,0.2c-0.9,0.4-1.7,0.9-2.4,1.5c-0.8,0.6-1.4,1.3-2,2.1c-0.6,0.8-1,1.6-1.3,2.5    c-0.3,0.9-0.5,1.9-0.5,2.9c0,0.5,0.1,1,0.2,1.5c0.1,0.5,0.3,1,0.5,1.4c0.5,0.9,1.3,1.7,2.2,2.1c0.6,0.3,1.2,0.4,1.9,0.4    c0.6,0,1.2-0.1,1.8-0.4C173.8,185.5,174.3,185.1,174.7,184.7 M173,183.8c-0.2,0.3-0.4,0.5-0.6,0.7c-0.3,0.2-0.6,0.3-0.9,0.2    c-0.4,0-0.7-0.1-1-0.3c-0.3-0.2-0.5-0.5-0.7-0.8c-0.2-0.4-0.3-0.8-0.4-1.2c-0.1-0.4-0.1-0.8-0.1-1.2c0-0.2,0-0.4,0-0.6v-0.5    l0.3-0.3c0.2-0.1,0.3-0.3,0.5-0.4c0.2-0.1,0.4-0.2,0.6-0.3c0.5-0.2,1-0.2,1.5,0.1c0.3,0.1,0.5,0.3,0.6,0.6    c0.2,0.3,0.3,0.6,0.4,0.9c0.1,0.3,0.1,0.7,0.1,1.1c0,0.4,0,0.7-0.1,1.1C173.2,183.2,173.1,183.5,173,183.8" fill="#ffffff" style="fill:#ffffff" />
		<path class="st1" d="M180.9,188.2c-0.4,0.3-0.8,0.6-1.2,0.8c-0.5,0.2-1,0.4-1.5,0.6c-0.2,0-0.3,0.1-0.4,0.2    c-0.1,0.1-0.1,0.2-0.1,0.4c0,0.2,0,0.3,0.1,0.4c0.1,0.2,0.3,0.3,0.5,0.3l0,0c0.7,0,1.4-0.2,2.1-0.5c0.7-0.3,1.4-0.7,1.9-1.2    c0.6-0.5,1.1-1.1,1.5-1.7c0.4-0.7,0.6-1.4,0.6-2.2c0-0.5-0.1-1-0.3-1.4c-0.3-0.9-1.1-1.6-2-1.9c-0.1-0.1-0.3-0.1-0.5-0.1    c0.2-0.2,0.4-0.4,0.6-0.7c0.2-0.3,0.5-0.6,0.6-1c0.2-0.3,0.3-0.7,0.3-1.1c0-0.4-0.1-0.8-0.2-1.2c-0.2-0.3-0.4-0.6-0.6-0.8    c-0.3-0.2-0.6-0.3-0.9-0.4c-0.7-0.2-1.4-0.2-2,0.1c-0.3,0.1-0.6,0.3-0.9,0.5c-0.3,0.2-0.5,0.4-0.7,0.6c-0.2,0.2-0.3,0.6-0.3,0.9    c0,0.2,0.1,0.3,0.2,0.4c0.1,0.1,0.2,0.2,0.4,0.1c0.2,0,0.3-0.1,0.4-0.2c0.2-0.3,0.5-0.5,0.7-0.7c0.4-0.3,1-0.2,1.3,0.1    c0.2,0.3,0.3,0.6,0.3,0.9c0,0.3-0.1,0.5-0.2,0.8c-0.2,0.3-0.4,0.6-0.6,0.9c-0.3,0.3-0.5,0.5-0.8,0.7c-0.3,0.2-0.5,0.4-0.8,0.5    l-0.4,0.2c-0.3,0.1-0.5,0.4-0.5,0.7c0,0.4,0.2,0.7,0.6,0.7c0,0,0.1,0,0.1,0c0.2,0,0.4-0.1,0.6-0.2c0.1-0.1,0.2-0.1,0.3-0.2    c0.1-0.1,0.3-0.1,0.4-0.1h0.1c0.2,0,0.5,0.1,0.7,0.1c0.2,0,0.4,0.1,0.6,0.3c0.2,0.1,0.3,0.3,0.5,0.5c0.1,0.2,0.2,0.4,0.3,0.7    c0.1,0.2,0.1,0.5,0.1,0.7c0,0.4-0.1,0.9-0.3,1.3C181.5,187.6,181.2,187.9,180.9,188.2" fill="#ffffff" style="fill:#ffffff" />
		<path class="st1" d="M193.3,182.1c-0.3-0.1-0.7,0-0.9,0.3l-0.5,0.7c-0.1,0.2-0.2,0.4-0.4,0.6c-0.1,0.2-0.3,0.4-0.4,0.5    c-0.1,0.1-0.3,0.1-0.4,0.1c-0.3,0.1-0.7,0.1-1,0.1c-0.3,0-0.7,0-1,0l0.4-0.4c0.2-0.3,0.5-0.6,0.8-0.9c0.3-0.3,0.5-0.7,0.8-1    c0.2-0.3,0.4-0.7,0.6-1c0.2-0.3,0.3-0.6,0.4-0.9c0.3-0.8,0.2-1.8-0.3-2.6c-0.5-0.7-1.4-1.1-2.2-1h-0.6c-0.2,0-0.4,0.1-0.6,0.1    c-0.2,0.1-0.5,0.2-0.7,0.4c-0.3,0.2-0.5,0.4-0.7,0.7c-0.1,0.1-0.1,0.1-0.2,0.2l-0.2,0.3c-0.1,0.1-0.1,0.2-0.2,0.3    c-0.1,0.1-0.1,0.3-0.1,0.4c0,0.2,0.1,0.4,0.3,0.6c0.2,0.1,0.4,0.2,0.7,0.1c0.2-0.1,0.3-0.2,0.4-0.4c0.1-0.1,0.1-0.2,0.2-0.3    c0.1-0.1,0.2-0.2,0.4-0.2c0.2-0.1,0.4-0.1,0.7-0.1c0.7,0,0.9,0.3,0.9,0.4c0.2,0.4,0.2,0.8,0,1.1c-0.2,0.3-0.3,0.7-0.5,1    c-0.2,0.4-0.5,0.8-0.8,1.2s-0.6,0.9-0.9,1.3c-0.3,0.4-0.7,0.8-1,1.1c-0.1,0.1-0.2,0.3-0.2,0.5c0,0.2,0.1,0.5,0.3,0.6    c0.1,0.1,0.3,0.2,0.5,0.2h0.1c0.2,0,0.4-0.1,0.5-0.3h1.9c0.6,0,1.3,0.1,1.9,0.2c0.5,0.1,1,0.1,1.3,0.1h0.1c0.3,0,0.6-0.3,0.6-0.6    c0,0,0,0,0,0c0-0.1,0-0.3,0.1-0.5c0.1-0.3,0.1-0.6,0.2-0.9c0.1-0.4,0.3-0.8,0.6-1.2l0.1-0.2l-0.1-0.2    C193.7,182.3,193.5,182.1,193.3,182.1" fill="#ffffff" style="fill:#ffffff" />
		<polygon class="st1" points="141.5,97.8 212.5,97.8 177,80.9   " fill="#ffffff" style="fill:#ffffff" />
		<rect x="139.9" y="101.2" class="st1" width="74.3" height="3.4" fill="#ffffff" style="fill:#ffffff" />
		<rect x="139.9" y="153.6" class="st1" width="20.3" height="10.1" fill="#ffffff" style="fill:#ffffff" />
		<rect x="193.9" y="153.6" class="st1" width="20.3" height="10.1" fill="#ffffff" style="fill:#ffffff" />
		<rect x="166.9" y="153.6" class="st1" width="6.8" height="10.1" fill="#ffffff" style="fill:#ffffff" />
		<rect x="180.4" y="153.6" class="st1" width="6.8" height="10.1" fill="#ffffff" style="fill:#ffffff" />
		<polygon class="st1" points="140.7,108 139.9,150.2 146.6,150.2 145.8,108   " fill="#ffffff" style="fill:#ffffff" />
		<polygon class="st1" points="159.3,108 154.2,108 153.4,150.2 160.1,150.2   " fill="#ffffff" style="fill:#ffffff" />
		<polygon class="st1" points="172.8,108 167.7,108 166.9,150.2 173.6,150.2   " fill="#ffffff" style="fill:#ffffff" />
		<polygon class="st1" points="186.3,108 181.2,108 180.4,150.2 187.2,150.2   " fill="#ffffff" style="fill:#ffffff" />
		<polygon class="st1" points="193.9,150.2 200.7,150.2 199.8,108 194.8,108   " fill="#ffffff" style="fill:#ffffff" />
		<polygon class="st1" points="213.4,108 208.3,108 207.4,150.2 214.2,150.2   " fill="#ffffff" style="fill:#ffffff" />
		<polygon class="st1" points="214.2,90.2 177,72.5 139.9,90.2 139.9,94.4 177,76.7 214.2,94.4   " fill="#ffffff" style="fill:#ffffff" />
		<path class="st1" d="M100.2,117.1c1.3,0,2.4-1,2.4-2.3c0-1.3-1-2.4-2.4-2.4c-1.3,0-2.4,1-2.4,2.3c0,0,0,0,0,0    C97.9,116,98.9,117,100.2,117.1" fill="#ffffff" style="fill:#ffffff" />
		<path class="st1" d="M251.6,114.7c0,1.3,1.1,2.4,2.4,2.4s2.4-1.1,2.4-2.4s-1.1-2.4-2.4-2.4c0,0,0,0,0,0    C252.6,112.3,251.6,113.4,251.6,114.7C251.6,114.7,251.6,114.7,251.6,114.7" fill="#ffffff" style="fill:#ffffff" />
		<path class="st1" d="M98.3,96.7c0.1,0.1,0.2,0.2,0.3,0.3l0.4,0.2c0.4,0.2,0.8,0.5,1.1,0.8c0.2,0.2,0.4,0.4,0.7,0.5    c0.1,0.1,0.3,0.1,0.5,0.1c0.1-0.1,0.2-0.2,0.3-0.3c0.1-0.1,0-0.3-0.1-0.5l-0.4-0.6c-0.1-0.2-0.3-0.4-0.4-0.6    c-0.1-0.1-0.1-0.2-0.2-0.3c-0.1-0.3-0.1-0.5-0.1-0.8c0-0.2,0.1-0.5,0.2-0.7l0.5-1c0.1-0.2,0.3-0.5,0.4-0.7c0-0.1,0.1-0.1,0.2-0.2    c0.1,0,0.2,0.1,0.3,0.1l0.3,0.1l7.7,4c0.2,0.1,0.5,0.3,0.7,0.4c0.1,0.1,0.3,0.2,0.3,0.4c0.1,0.1,0.1,0.3,0.1,0.5    c0,0.3-0.1,0.5-0.2,0.8c0,0.1,0,0.1-0.1,0.2c-0.1,0.1-0.1,0.3-0.1,0.4c0,0.2,0.1,0.4,0.3,0.5c0.1,0,0.1,0.1,0.2,0.1    c0.1,0,0.2-0.1,0.3-0.2c0.1-0.1,0.1-0.2,0.2-0.3c0.2-0.4,0.4-0.8,0.6-1.2s0.4-0.8,0.5-1.1c0.2-0.4,0.5-0.8,0.7-1.2    s0.5-0.8,0.7-1.2c0.1-0.1,0.1-0.2,0.2-0.3c0-0.1,0-0.3-0.3-0.5c-0.1,0-0.4-0.1-0.6,0.2l-0.4,0.6c-0.1,0.2-0.3,0.4-0.5,0.5    c-0.2,0.1-0.4,0.1-0.6,0.1c-0.2-0.1-0.3-0.1-0.5-0.2l-0.5-0.2c-0.9-0.5-1.8-1-2.8-1.5c-0.9-0.5-1.9-1-2.8-1.5l-1.9-1    c-0.2-0.1-0.3-0.2-0.5-0.3c-0.1-0.1-0.1-0.1-0.1-0.2l0.1-0.2c0-0.1,0.1-0.2,0.2-0.3s0.1-0.3,0.2-0.4c0.1-0.2,0.2-0.4,0.4-0.7    c0.1-0.2,0.3-0.4,0.4-0.6c0.1-0.2,0.3-0.3,0.4-0.4c0.1-0.1,0.2-0.1,0.3-0.1c0.2,0,0.3,0.1,0.5,0.2l0.5,0.3    c0.1,0.1,0.3,0.2,0.4,0.2c0.2,0.1,0.4,0,0.5-0.2c0.1-0.2,0.1-0.4-0.2-0.8c-0.2-0.2-0.5-0.4-0.8-0.6c-0.3-0.2-0.6-0.4-0.9-0.6    c-0.3-0.1-0.5-0.3-0.7-0.5l0,0c-0.1-0.1-0.3-0.2-0.5-0.3c-0.2,0-0.5,0.1-0.6,0.3c-0.1,0.1-0.1,0.3,0,0.4c0.1,0.1,0.1,0.2,0.1,0.3    c0,0.1,0.1,0.2,0.1,0.3c0,0.1,0,0.2,0,0.3c-0.1,0.2-0.1,0.3-0.2,0.5l-0.2,0.5c-0.3,0.5-0.5,1-0.8,1.5c-0.2,0.5-0.5,1-0.8,1.5    c-0.3,0.5-0.7,1.3-1,1.9c-0.4,0.7-0.7,1.3-1.1,1.9c0,0.1-0.1,0.2-0.2,0.2c-0.1,0-0.2,0.1-0.2,0.1h-0.2c-0.1,0-0.2,0.1-0.3,0.2    c-0.1,0.2-0.1,0.3-0.1,0.5C98.2,96.4,98.3,96.6,98.3,96.7" fill="#ffffff" style="fill:#ffffff" />
		<path class="st1" d="M110.9,81.9l1.7,3l1,1.8c0.3,0.6,0.7,1.2,1,1.8l0.2,0.4l0.3,0.5l0.3,0.5c0.1,0.1,0.1,0.2,0.1,0.3    c0,0.1,0,0.3,0,0.4c0,0.1-0.1,0.3-0.2,0.4c-0.1,0.1-0.1,0.3-0.2,0.4c0,0.2,0.1,0.4,0.2,0.5c0.1,0.1,0.2,0.1,0.3,0.1l0,0    c0.1,0,0.3-0.1,0.3-0.2c0.2-0.2,0.3-0.4,0.4-0.6c0.1-0.2,0.3-0.4,0.4-0.6c0.2-0.3,0.5-0.6,0.8-0.9c0.3-0.3,0.5-0.6,0.8-0.9    c0.1-0.1,0.1-0.2,0.1-0.4c0-0.1-0.1-0.3-0.2-0.4c-0.2-0.2-0.5-0.2-0.7,0c-0.2,0.1-0.3,0.3-0.5,0.4c-0.1,0.1-0.3,0.3-0.5,0.4    c-0.1,0-0.2,0.1-0.3-0.1c-0.1-0.1-0.2-0.2-0.3-0.4c-0.2-0.2-0.4-0.5-0.6-0.9c-0.2-0.4-0.5-0.8-0.8-1.2s-0.5-0.9-0.8-1.3    c0.1-0.1,0.2-0.3,0.2-0.4c0.1-0.2,0.3-0.4,0.4-0.6l0.5-0.6l0.4-0.4l0.2-0.3c0.1-0.2,0.2-0.3,0.4-0.4c0.1-0.1,0.2-0.2,0.3-0.2h0.1    l0.3,0.1l1.3,0.4l1.2,0.3l0.9,0.3c0.2,0,0.4,0.1,0.5,0.2h0.1h0.1c0.1,0.1,0.1,0.2,0.1,0.2c-0.1,0.2-0.2,0.3-0.3,0.5    c-0.1,0.2-0.2,0.3-0.3,0.5c-0.1,0.2-0.1,0.4,0.1,0.6c0,0,0,0,0,0c0.1,0.1,0.3,0.1,0.4,0.1c0.1,0,0.3-0.1,0.4-0.2    c0.3-0.3,0.5-0.7,0.7-1c0.2-0.3,0.5-0.7,0.7-1c0.2-0.2,0.4-0.4,0.6-0.6c0.2-0.2,0.4-0.4,0.6-0.7l0.1-0.2c0.1-0.1,0.2-0.2,0.2-0.4    c0.1-0.2,0-0.4-0.1-0.5c-0.2-0.1-0.4-0.1-0.6,0c-0.1,0.1-0.3,0.2-0.4,0.3c-0.1,0.1-0.3,0.2-0.5,0.3c-0.1,0.1-0.3,0.1-0.5,0.1    c-1.4-0.3-2.7-0.7-4.1-1c-1.3-0.4-2.7-0.8-4-1.2l-2.1-0.5l-2.2-0.6c-0.1,0-0.2,0-0.3,0c-0.1,0-0.3,0.1-0.4,0.2    c-0.1,0.1-0.1,0.2-0.1,0.4c0,0.1,0.1,0.1,0.1,0.2L110.9,81.9 M111.6,80.5L111.6,80.5l1.1,0.4l1.3,0.5l1.1,0.4    c-0.4,0.6-0.8,1-1,1.3l-0.6,0.7l-0.1,0.2l-0.6-1.1c-0.2-0.4-0.4-0.7-0.5-1l-0.5-0.8L111.6,80.5" fill="#ffffff" style="fill:#ffffff" />
		<path class="st1" d="M117.7,70.5c0.1-0.1,0.3-0.1,0.4-0.2l0.4-0.3c0.1-0.1,0.2-0.2,0.4-0.2c0.1,0,0.2,0,0.3,0    c0.1,0,0.3,0.1,0.4,0.3c0.7,0.8,1.3,1.5,2,2.3c0.7,0.8,1.3,1.6,1.9,2.3l2.4,2.8c0.1,0.1,0.2,0.3,0.2,0.4c0,0.1,0,0.3,0,0.4    c-0.1,0.1-0.1,0.3-0.2,0.4l-0.3,0.4c-0.1,0.1-0.2,0.2-0.2,0.3c-0.1,0.1-0.1,0.3,0,0.5c0.1,0.1,0.2,0.2,0.4,0.2l0,0    c0.1,0,0.3-0.1,0.4-0.2c0.3-0.2,0.5-0.5,0.8-0.8s0.5-0.5,0.8-0.7c0.3-0.2,0.7-0.5,1-0.8c0.3-0.2,0.7-0.5,1-0.8    c0.2-0.1,0.3-0.3,0.4-0.4c0.1-0.2,0.1-0.4,0-0.6c-0.1-0.1-0.3-0.2-0.4-0.1c-0.1,0-0.2,0.1-0.3,0.2l0,0l0,0    c-0.2,0.1-0.4,0.2-0.6,0.3c-0.1,0.1-0.3,0.1-0.4,0.2c-0.1,0-0.2,0-0.3,0c-0.2-0.1-0.3-0.2-0.5-0.4l-2.5-2.8    c-0.1-0.1-0.2-0.3-0.3-0.4c0,0,0-0.1,0.2-0.2c0.3-0.2,0.6-0.4,0.9-0.4c0.3,0,0.7,0,1,0.1c0.4,0.1,0.8,0.3,1.1,0.4    c0.4,0.2,0.8,0.4,1.2,0.5c0.9,0.5,1.8,0.8,2.8,0.8c1,0,2-0.2,2.9-0.8l0.3-0.2l0.3-0.2c0.2-0.1,0.3-0.3,0.5-0.5v-0.1    c0-0.2,0-0.3-0.1-0.5c-0.1-0.2-0.4-0.2-0.5-0.1c-0.1,0.1-0.3,0.1-0.4,0.2c-0.4,0.2-0.9,0.3-1.4,0.3c-0.5,0-1-0.1-1.5-0.2    c-0.5-0.1-1-0.3-1.6-0.5l-1.4-0.6c-0.4-0.2-0.8-0.3-1.3-0.5c-0.2-0.1-0.4-0.1-0.7-0.1c0.1-0.2,0.2-0.5,0.2-0.7    c0.1-0.4,0.2-0.7,0.2-1.1c0-0.4,0-0.8-0.1-1.1c-0.1-0.4-0.3-0.7-0.6-1c-0.4-0.5-0.9-0.9-1.5-1.1c-0.5-0.2-1-0.3-1.5-0.2    c-0.5,0.1-1,0.2-1.4,0.4c-0.4,0.2-0.8,0.4-1.1,0.7c-0.3,0.3-0.7,0.6-1,0.9l-1,0.9l-1.2,1l-0.3,0.2c-0.1,0.1-0.2,0.2-0.3,0.3    c-0.1,0.1-0.2,0.2-0.3,0.3c-0.1,0.2-0.1,0.4,0.1,0.6C117.3,70.5,117.5,70.6,117.7,70.5 M125.9,68.9c0.1,0.3,0.1,0.7,0,1    c-0.1,0.4-0.3,0.7-0.5,1c-0.3,0.3-0.6,0.7-0.9,0.9c-0.1,0.1-0.3,0.2-0.4,0.2c-0.1,0-0.1,0-0.1,0c-0.1,0-0.1-0.1-0.2-0.2l-0.3-0.3    l-1-1.2c-0.4-0.5-0.7-0.9-1-1.2l-0.4-0.5c-0.1-0.1-0.2-0.3-0.2-0.5c0-0.1,0.1-0.2,0.4-0.6c0.3-0.3,0.6-0.5,1-0.6    c0.3-0.1,0.6-0.2,0.9-0.2h0.1c0.3,0,0.7,0.1,1,0.3c0.4,0.2,0.7,0.4,0.9,0.8l0,0C125.5,68,125.7,68.4,125.9,68.9" fill="#ffffff" style="fill:#ffffff" />
		<path class="st1" d="M129.2,60.5c0.1,0.1,0.1,0.3,0.2,0.4c0.2,0.4,0.4,0.9,0.5,1.3c0.1,0.3,0.2,0.6,0.3,0.8    c0.1,0.1,0.2,0.2,0.3,0.3c0.1,0,0.3,0,0.4-0.1c0.1-0.1,0.2-0.2,0.2-0.5c0-0.2,0-0.4,0-0.7s0-0.5,0-0.7c0-0.1-0.1-0.3-0.1-0.4    c0.1-0.3,0.2-0.5,0.4-0.7c0.2-0.2,0.4-0.3,0.6-0.5l1-0.5c0.2-0.1,0.5-0.2,0.7-0.3c0.1,0,0.2-0.1,0.3-0.1c0.1,0.1,0.1,0.2,0.2,0.2    l0.2,0.3l4.3,7.5c0.1,0.2,0.3,0.5,0.4,0.7c0.1,0.2,0.1,0.3,0.1,0.5c0,0.2-0.1,0.3-0.2,0.4c-0.2,0.2-0.4,0.4-0.6,0.6l-0.2,0.1    c-0.1,0.1-0.2,0.2-0.3,0.3c-0.1,0.2-0.1,0.4,0,0.5c0.1,0.1,0.2,0.2,0.3,0.2h0.2l0.3-0.1c0.4-0.2,0.7-0.4,1.1-0.7s0.7-0.5,1.1-0.7    c0.4-0.2,0.8-0.5,1.2-0.7s0.9-0.4,1.3-0.7c0.1-0.1,0.2-0.1,0.3-0.2c0.1-0.1,0.2-0.2,0-0.6c0-0.1-0.2-0.3-0.6-0.1l-0.7,0.3    c-0.2,0.1-0.5,0.2-0.7,0.2c-0.2,0-0.4-0.1-0.6-0.3c-0.1-0.1-0.2-0.3-0.3-0.4l-0.3-0.5c-0.5-0.9-1-1.8-1.6-2.7    c-0.6-0.9-1.1-1.8-1.6-2.7l-1.1-1.9c-0.1-0.2-0.2-0.3-0.2-0.5c0-0.1,0-0.2,0-0.2l0.2-0.1l0.3-0.2l0.4-0.2l0.7-0.4l0.7-0.3    c0.2-0.1,0.4-0.1,0.6-0.1c0.1,0,0.2,0,0.4,0.1c0.1,0.1,0.2,0.2,0.3,0.4l0.2,0.5c0.1,0.2,0.2,0.3,0.3,0.4c0.1,0.2,0.4,0.2,0.5,0.1    c0.2-0.1,0.3-0.3,0.2-0.8c-0.1-0.3-0.2-0.6-0.3-0.9c-0.1-0.3-0.3-0.7-0.5-1c-0.1-0.3-0.2-0.5-0.3-0.8c0-0.2-0.1-0.4-0.3-0.5    c-0.2-0.2-0.5-0.2-0.7,0c-0.1,0.1-0.2,0.2-0.2,0.3c0,0.1,0,0.2,0,0.3c0,0.1,0,0.2-0.1,0.3c0,0.1-0.1,0.2-0.2,0.2l-0.4,0.3    l-0.5,0.3c-0.5,0.3-1,0.6-1.4,0.8l-1.4,0.8c-0.6,0.4-1.3,0.7-1.9,1.1l-1.9,1c-0.1,0.1-0.2,0.1-0.3,0.1c-0.1,0-0.2,0-0.3,0    l-0.2-0.1c-0.1-0.1-0.2-0.1-0.3,0c-0.2,0.1-0.3,0.2-0.3,0.4c0,0.1,0,0.3,0,0.4C129.1,60.2,129.2,60.4,129.2,60.5" fill="#ffffff" style="fill:#ffffff" />
		<path class="st1" d="M143.6,53c0.1,0,0.2,0,0.4,0l0.3,0l0.2-0.1l0.2-0.1c0.1-0.1,0.3-0.1,0.4,0c0.1,0.1,0.2,0.2,0.3,0.3    c0.1,0.2,0.2,0.3,0.2,0.5c0.1,0.2,0.1,0.4,0.2,0.5c0.3,0.9,0.6,1.9,0.9,2.9c0.3,1,0.6,1.9,0.9,2.9l0.2,0.6c0,0.1,0.1,0.2,0.1,0.3    c0,0.1,0.1,0.2,0.1,0.3c0.2,0.6,0.6,1.1,1.1,1.5c0.4,0.4,0.9,0.6,1.4,0.8c0.4,0.1,0.7,0.1,1.1,0.1c0.2,0,0.4,0,0.6,0    c0.6-0.1,1.2-0.2,1.7-0.4c0.5-0.2,1-0.4,1.5-0.6c0.5-0.3,1-0.6,1.4-0.9c0.5-0.4,0.8-0.9,1-1.4c0.2-0.5,0.2-1.1,0.2-1.6    c0-0.6-0.1-1.1-0.3-1.7c-0.1-0.5-0.3-1.1-0.5-1.6c-0.1-0.3-0.2-0.6-0.3-0.9l-0.3-0.9c-0.1-0.3-0.2-0.7-0.4-1.2s-0.3-0.9-0.4-1.3    c-0.1-0.4-0.2-0.8-0.3-1.1c0-0.1,0-0.3,0-0.4l0,0c0.1-0.1,0.2-0.1,0.2-0.1c0.2-0.1,0.3-0.2,0.5-0.3c0.2-0.1,0.3-0.2,0.5-0.3    c0.2-0.1,0.2-0.4,0.2-0.5c-0.1-0.2-0.3-0.3-0.5-0.3h-0.1c-0.3,0.1-0.6,0.2-0.9,0.3l-0.9,0.3c-0.3,0.1-0.6,0.2-0.9,0.2    s-0.6,0.2-0.9,0.3c-0.1,0-0.2,0.1-0.3,0.1c-0.1,0.1-0.2,0.3-0.1,0.5c0,0.2,0.2,0.4,0.4,0.4c0.2,0,0.3,0,0.5,0c0.2,0,0.3,0,0.5-0.1    c0.1,0,0.2,0,0.3,0c0,0,0.2,0.1,0.3,0.3c0.1,0.3,0.2,0.5,0.3,0.8c0.1,0.3,0.2,0.6,0.3,1c0.1,0.3,0.2,0.6,0.3,0.9l1.2,3.6    c0.1,0.3,0.2,0.7,0.2,1c0.1,0.5,0.1,1,0,1.5c0,0.4-0.2,0.8-0.4,1.1c-0.2,0.3-0.5,0.6-0.8,0.8c-0.4,0.3-0.9,0.5-1.4,0.6    c-0.4,0.1-0.9,0.2-1.3,0.3c-0.4,0-0.8,0-1.1-0.2c-0.4-0.2-0.7-0.5-1-0.8c-0.4-0.5-0.7-1-0.9-1.6c-0.1-0.3-0.3-0.7-0.4-1    s-0.2-0.7-0.3-1l-1-3.1c0-0.2-0.1-0.3-0.2-0.5s-0.1-0.4-0.1-0.6s-0.1-0.4-0.1-0.5c0-0.1,0-0.2,0-0.3c0-0.1,0.1-0.3,0.2-0.4    c0.2-0.1,0.3-0.2,0.5-0.3c0.2-0.1,0.3-0.2,0.5-0.3c0.2-0.1,0.3-0.4,0.2-0.6c-0.1-0.2-0.3-0.3-0.5-0.3c-0.1,0-0.3,0-0.4,0.1    c-0.4,0.1-0.8,0.3-1.2,0.4c-0.4,0.2-0.8,0.3-1.1,0.4c-0.4,0.1-0.7,0.2-1.1,0.3c-0.4,0.1-0.8,0.2-1.1,0.3c-0.1,0-0.3,0.1-0.3,0.3    c-0.1,0.1-0.1,0.3,0,0.4c0,0.1,0.1,0.2,0.3,0.3" fill="#ffffff" style="fill:#ffffff" />
		<path class="st1" d="M175.2,44.6L175.2,44.6c0.3,0,0.6-0.1,0.8-0.3c0.2-0.2,0.4-0.5,0.4-0.8l0,0c0-0.3-0.1-0.6-0.3-0.8    c-0.2-0.2-0.5-0.4-0.8-0.4c-0.3,0-0.6,0.1-0.8,0.3c-0.2,0.2-0.4,0.5-0.3,0.8c0,0.3,0.1,0.6,0.4,0.8    C174.7,44.5,174.9,44.6,175.2,44.6" fill="#ffffff" style="fill:#ffffff" />
		<path class="st1" d="M169.8,46.8h0.3h0.4c0.2,0,0.3,0,0.4,0.1c0.1,0.1,0.2,0.2,0.2,0.4c0.1,0.2,0.1,0.4,0.1,0.5c0,0.2,0,0.4,0,0.6    c0,1,0,2,0,3s0,2,0,3v0.7c0,0.1,0,0.2,0,0.3v0.3c0.1,0.6,0.3,1.2,0.6,1.8c0.3,0.5,0.7,0.8,1.1,1.1c0.5,0.3,1,0.5,1.5,0.6    c0.5,0.1,1.1,0.1,1.6,0.1h0.2c0.5,0,1.1-0.1,1.6-0.1c0.5-0.1,1.1-0.2,1.6-0.4c0.6-0.2,1.1-0.5,1.5-1c0.3-0.4,0.6-0.9,0.7-1.5    c0.1-0.6,0.2-1.1,0.3-1.7c0-0.6,0-1.1,0-1.7c0-0.3,0-0.7,0-1v-1c0-0.4,0-0.8,0-1.2s0-0.9,0-1.4c0-0.4,0-0.8,0-1.1    c0-0.1,0-0.3,0.1-0.4c0.1,0,0.2-0.1,0.3-0.1c0.2,0,0.4-0.1,0.6-0.1c0.2,0,0.4-0.1,0.5-0.2c0.2-0.1,0.3-0.3,0.3-0.5l0,0    c0-0.1-0.1-0.3-0.4-0.4h-0.1c-0.3,0-0.7,0-1,0h-1c-0.3,0-0.6,0-0.9,0s-0.6,0-1,0c-0.1,0-0.2,0-0.3,0c-0.2,0.1-0.3,0.2-0.2,0.4    c0,0.2,0.1,0.4,0.3,0.5c0.1,0.1,0.3,0.1,0.5,0.2l0.5,0.1c0.1,0,0.2,0.1,0.3,0.1c0,0,0.1,0.1,0.2,0.4c0,0.3,0.1,0.6,0.1,0.8    c0,0.3,0,0.7,0,1V50l0.1,3.8c0,0.3,0,0.7-0.1,1c-0.1,0.5-0.2,1-0.4,1.5c-0.2,0.4-0.4,0.7-0.7,1c-0.3,0.3-0.6,0.4-1,0.5    c-0.5,0.1-1,0.2-1.5,0.2c-0.4,0-0.9,0-1.3-0.1c-0.4-0.1-0.7-0.3-1-0.5c-0.3-0.3-0.5-0.6-0.7-1c-0.2-0.6-0.3-1.2-0.4-1.8    c0-0.4-0.1-0.7-0.1-1.1v-1.1v-3.3v-0.6c0-0.2,0-0.4,0-0.6c0-0.2,0-0.4,0.1-0.5c0-0.1,0-0.2,0.1-0.3c0.1-0.1,0.2-0.2,0.3-0.3    c0.2-0.1,0.4-0.1,0.6-0.2c0.2,0,0.4-0.1,0.6-0.1c0.2-0.1,0.4-0.3,0.4-0.5c0-0.2-0.2-0.4-0.4-0.4c-0.1,0-0.3,0-0.4,0    c-0.4,0-0.8,0-1.2,0.1c-0.4,0.1-0.8,0.1-1.2,0.1c-0.4,0-0.8,0-1.1,0c-0.4,0-0.8,0-1.2,0c-0.3,0-0.5,0.2-0.5,0.4c0,0,0,0.1,0,0.1    c0,0.1,0.1,0.3,0.2,0.3c0.1,0.1,0.2,0.1,0.3,0.1" fill="#ffffff" style="fill:#ffffff" />
		<path class="st1" d="M178.8,44.5c0,0,0.1,0,0.1,0l0,0c0.3,0,0.6-0.1,0.8-0.3c0.5-0.5,0.5-1.2,0-1.7c0,0,0,0,0,0    c-0.2-0.2-0.5-0.3-0.8-0.3l0,0c-0.3,0-0.6,0.1-0.8,0.3c-0.2,0.2-0.3,0.5-0.3,0.8c0,0.3,0.1,0.5,0.3,0.8    C178.3,44.3,178.5,44.5,178.8,44.5" fill="#ffffff" style="fill:#ffffff" />
		<path class="st1" d="M185.4,59.5c0.4,0.1,0.7,0.1,1,0.1l0.8,0.1l0.8,0.1c0.3,0,0.6,0.1,1,0.1c0.8,0.1,1.6,0.3,2.3,0.6    c0.8,0.2,1.6,0.4,2.4,0.6h0.1c0.2,0,0.4-0.3,0.4-0.4c0.1-0.1,0.2-0.5,0.4-0.9c0.2-0.4,0.4-0.7,0.6-1.2c0.3-0.4,0.6-0.9,0.9-1.2    l0.1-0.1v-0.1c0-0.2-0.2-0.3-0.3-0.4c-0.2-0.1-0.4-0.1-0.5,0c-0.1,0.1-0.3,0.2-0.4,0.4l-0.6,0.7c-0.2,0.2-0.5,0.5-0.7,0.7    c-0.2,0.2-0.4,0.3-0.6,0.4c-0.2,0.1-0.4,0.1-0.6,0.1c-0.3,0.1-0.7,0.1-1,0.1c-0.4,0-0.7-0.1-1.1-0.2c-0.3-0.1-0.6-0.3-0.8-0.5    c-0.1-0.1-0.1-0.2-0.1-0.3c0-0.2,0-0.4,0-0.6c0-0.2,0-0.5,0.1-0.7c0-0.2,0.1-0.5,0.1-0.7l0.1-0.7c0.2-1.1,0.4-2.1,0.6-3.1    s0.4-2.1,0.6-3.2c0-0.1,0-0.2,0.1-0.3c0.1-0.1,0.1-0.2,0.1-0.4c0-0.1,0.1-0.2,0.1-0.3c0-0.1,0.1-0.1,0.2-0.2    c0.1-0.1,0.3-0.1,0.4-0.1l0.6,0.1c0.2,0,0.4,0,0.5,0c0.2,0,0.4-0.2,0.4-0.4c0-0.2,0-0.3-0.2-0.5v-0.1h-0.1c-0.5-0.1-1-0.2-1.3-0.2    c-0.4,0-0.8-0.1-1.2-0.2c-0.4-0.1-0.8-0.2-1.2-0.3c-0.4-0.1-0.8-0.2-1.2-0.3c-0.1,0-0.3,0-0.4,0l0,0c-0.2,0-0.4,0.2-0.4,0.4    c-0.1,0.2,0.1,0.5,0.3,0.5l0.6,0.2c0.2,0.1,0.4,0.2,0.6,0.3c0.1,0.1,0.2,0.3,0.2,0.4c0,0.3,0,0.5-0.1,0.8l-0.9,5.2    c-0.1,0.3-0.1,0.7-0.2,1.2c-0.1,0.5-0.1,0.9-0.2,1.4c-0.1,0.4-0.2,0.8-0.3,1.2c0,0.2-0.2,0.5-0.3,0.6c-0.1,0.1-0.3,0.1-0.5,0.1    H186c-0.2,0-0.3,0-0.5,0c-0.2,0-0.4,0.2-0.4,0.4c0,0.1,0,0.2,0.1,0.3C185.2,59.4,185.3,59.5,185.4,59.5" fill="#ffffff" style="fill:#ffffff" />
		<path class="st1" d="M198.3,62.3l0.2,0.1c0.3,0.1,0.7,0.2,1,0.3c0.3,0.1,0.6,0.1,0.9,0.2c0.3,0.1,0.6,0.2,0.9,0.4s0.6,0.3,1,0.4    c0.2,0.1,0.4,0.1,0.5,0.2c0,0,0.1,0,0.1,0c0.2,0,0.4-0.1,0.4-0.3c0.1-0.2,0-0.4-0.2-0.5l-0.4-0.2l-0.5-0.3    c-0.1-0.1-0.2-0.1-0.3-0.2c-0.1-0.2-0.1-0.3,0-0.5c0-0.2,0.1-0.4,0.2-0.6l1.5-4.3c0.3-0.7,0.5-1.4,0.8-2.1    c0.3-0.7,0.5-1.4,0.8-2.1c0.1-0.2,0.1-0.4,0.2-0.5c0-0.1,0.1-0.2,0.2-0.2c0.1-0.1,0.2-0.1,0.3-0.1c0.2,0,0.5,0.1,0.7,0.2    c0.2,0.1,0.3,0.1,0.5,0.1c0.2,0,0.4-0.1,0.5-0.4c0-0.1,0-0.1,0-0.2c0-0.1,0-0.1,0-0.2v-0.1l-1.6-0.5c-0.2-0.1-0.3-0.1-0.5-0.2    l-0.5-0.1c-0.3-0.1-0.6-0.2-1-0.4s-0.7-0.3-1-0.4l-0.2-0.1c-0.1,0-0.2-0.1-0.3-0.1c-0.2,0-0.4,0.1-0.4,0.3c-0.1,0.2,0,0.4,0.1,0.6    c0.1,0.1,0.3,0.2,0.4,0.3c0.2,0.1,0.3,0.1,0.5,0.2c0.1,0.1,0.2,0.2,0.3,0.3c0,0.1,0,0.3,0,0.4c-0.1,0.2-0.2,0.4-0.3,0.6l-0.1,0.3    c-0.1,0.3-0.2,0.6-0.3,0.8c-0.1,0.3-0.2,0.6-0.3,0.9l-2.2,6.3c-0.1,0.2-0.2,0.4-0.3,0.6c0,0.1-0.1,0.2-0.3,0.3    c-0.1,0.1-0.3,0.1-0.4,0.1l-0.5-0.1c-0.1,0-0.3,0-0.4,0c-0.2,0-0.4,0.1-0.4,0.3c-0.1,0.2,0,0.4,0.1,0.5    C198,62.2,198.2,62.2,198.3,62.3" fill="#ffffff" style="fill:#ffffff" />
		<path class="st1" d="M207.1,64.2c-0.1-0.1-0.3-0.1-0.5-0.2c-0.2-0.1-0.3-0.1-0.5-0.1c-0.2,0-0.4,0.1-0.5,0.3    c-0.1,0.2-0.1,0.4,0.1,0.5c0.1,0.1,0.2,0.2,0.3,0.2c0.4,0.2,0.9,0.5,1.3,0.7s0.9,0.4,1.3,0.6c0.2,0.1,0.4,0.2,0.6,0.4    c0.2,0.1,0.4,0.3,0.7,0.4l0.2,0.1c0.1,0.1,0.3,0.1,0.4,0.1c0.2,0,0.4-0.1,0.4-0.3c0.1-0.1,0.1-0.3,0-0.5c-0.1-0.1-0.2-0.2-0.3-0.2    l-0.3-0.2l-0.1-0.1V66h-0.1c-0.1-0.1-0.3-0.2-0.4-0.3c-0.1-0.1-0.1-0.3-0.1-0.4c0-0.2,0.1-0.4,0.2-0.5c0.1-0.2,0.2-0.4,0.2-0.5    c0.2-0.4,0.4-0.8,0.6-1.1l0.6-1.1l0.4-0.7l0.2-0.4l0.1-0.2c0,0,0.1,0.1,0.2,0.1c0.1,0.2,0.2,0.4,0.2,0.6c0.1,0.3,0.2,0.7,0.3,1.1    s0.2,0.8,0.3,1.3s0.2,0.9,0.3,1.3l0.4,2c0,0.1,0,0.2,0,0.2c0,0.1,0,0.2,0,0.3s0,0.2,0.1,0.3c0,0.1,0,0.1,0,0.2l0,0l-0.1-0.1    l-0.3-0.2c-0.1-0.1-0.3-0.2-0.5-0.2c-0.2-0.1-0.3-0.1-0.5-0.1c-0.2,0-0.4,0.1-0.5,0.2c-0.1,0.1-0.1,0.3,0,0.5    c0.1,0.1,0.2,0.2,0.3,0.2c0.4,0.2,0.8,0.4,1.2,0.6c0.4,0.2,0.8,0.4,1.2,0.6s0.7,0.4,1,0.6s0.6,0.4,1,0.6c0.1,0,0.2,0.1,0.3,0.1    h0.2c0.1,0,0.2-0.1,0.3-0.2c0.2-0.2,0.2-0.5,0-0.6l-0.4-0.3c-0.2-0.2-0.4-0.4-0.5-0.7c-0.1-0.3-0.3-0.6-0.4-0.8    c-0.1-0.3-0.2-0.6-0.2-0.9c-0.1-0.3-0.1-0.6-0.2-0.9c0-0.1-0.1-0.3-0.2-0.7l-0.3-1.2c-0.1-0.4-0.2-0.9-0.4-1.4s-0.2-1-0.3-1.4    c-0.1-0.4-0.2-0.8-0.3-1.1c-0.1-0.3-0.1-0.3-0.1-0.4l0.4-0.1l1.1-0.3l1.4-0.3c0.5-0.1,1-0.2,1.4-0.3s0.8-0.2,1.2-0.2    c0.2,0,0.4-0.1,0.6-0.1c0.2,0,0.3,0,0.5,0.1l0.6,0.2c0.2,0.1,0.3,0.1,0.5,0.1c0.2,0,0.4-0.1,0.5-0.2c0.1-0.1,0.1-0.3,0-0.5    c-0.1-0.1-0.2-0.2-0.3-0.3l-0.8-0.4c-0.3-0.1-0.5-0.2-0.8-0.4l-0.9-0.5c-0.3-0.2-0.6-0.3-0.9-0.5l-0.5-0.2    c-0.2-0.1-0.5-0.1-0.6,0.1l-0.1,0.2c-0.1,0.2,0,0.4,0.2,0.5c0,0,0,0,0,0c0.2,0.1,0.3,0.2,0.5,0.3l0.4,0.3l0.1,0.1    c-0.1,0.1-0.2,0.1-0.3,0.2c-0.2,0.1-0.5,0.2-0.9,0.3s-0.7,0.2-1.1,0.3l-1.1,0.3l-1,0.2l-0.6,0.2l-0.3,0.1c-0.1,0-0.3,0.1-0.4,0.1    c-0.1,0-0.3,0-0.4,0c0,0-0.1,0-0.1,0c0,0,0,0,0,0l0.4-0.8c0.1-0.2,0.3-0.5,0.4-0.7c0.1-0.2,0.2-0.5,0.4-0.7l0.4-0.8    c0.2-0.4,0.4-0.5,0.5-0.6c0.2,0,0.3,0,0.5,0c0.2,0.1,0.3,0.2,0.5,0.2c0.2,0.1,0.4,0.2,0.6,0.1c0.1,0,0.1-0.1,0.2-0.2    c0,0,0.1-0.1,0.1-0.1l0.1-0.1c0.1-0.2,0-0.3-0.1-0.4c-0.1-0.1-0.2-0.2-0.3-0.2l-0.1-0.1c-0.2-0.1-0.5-0.2-0.8-0.4    c-0.2-0.1-0.5-0.2-0.7-0.3l-0.5-0.3c-0.3-0.1-0.5-0.3-0.8-0.5c-0.3-0.2-0.5-0.4-0.8-0.5l-0.2-0.1c-0.1-0.1-0.2-0.1-0.4-0.1    c-0.2-0.1-0.4,0-0.4,0.2c-0.1,0.2-0.1,0.4,0,0.5c0.1,0.1,0.2,0.2,0.3,0.3c0.1,0.1,0.3,0.2,0.4,0.2c0.1,0.1,0.2,0.1,0.3,0.2    c0.1,0.1,0.2,0.2,0.1,0.3c0,0.2-0.1,0.3-0.2,0.5l-1,1.9c-0.6,1.1-1.1,2.1-1.7,3.1s-1.1,2.1-1.7,3.1l-0.2,0.3    c-0.1,0.1-0.1,0.2-0.2,0.3c-0.1,0.1-0.2,0.2-0.3,0.2c-0.1,0-0.2,0.1-0.2,0.1C207.4,64.2,207.2,64.2,207.1,64.2" fill="#ffffff" style="fill:#ffffff" />
		<path class="st1" d="M227.8,77.8h0.6c0.9-0.1,1.8-0.3,2.7-0.8c0.9-0.4,1.6-1,2.2-1.8c0.6-0.7,1.1-1.6,1.4-2.5    c0.2-0.9,0.3-1.8,0.2-2.7c-0.1-0.9-0.4-1.8-0.8-2.5c-0.5-0.8-1.1-1.5-1.8-2.2c-0.7-0.6-1.6-1.1-2.5-1.4c-1.7-0.5-3.6-0.3-5.2,0.5    c-0.8,0.5-1.6,1.1-2.2,1.8c-0.6,0.7-1.1,1.6-1.4,2.5c-0.3,0.8-0.4,1.7-0.4,2.6c0.1,0.9,0.3,1.7,0.7,2.5c0.4,0.8,1,1.6,1.8,2.2    c0.7,0.6,1.6,1.1,2.6,1.4C226.4,77.7,227.1,77.8,227.8,77.8 M223.3,74.5c-0.3-0.6-0.5-1.3-0.5-2c0-0.7,0.1-1.4,0.3-2.1    c0.2-0.7,0.5-1.4,0.9-2c0.3-0.6,0.7-1.2,1.2-1.7c0.4-0.5,1-1,1.6-1.3c0.6-0.3,1.2-0.5,1.9-0.5h0.1c0.7,0,1.4,0.2,2,0.6    c0.7,0.4,1.2,0.9,1.6,1.6c0.3,0.6,0.6,1.2,0.6,1.9c0.1,0.7,0,1.4-0.2,2.1c-0.2,0.7-0.5,1.4-0.9,2.1c-0.4,0.6-0.8,1.2-1.2,1.7    c-0.5,0.5-1,1-1.6,1.3c-0.6,0.3-1.2,0.6-1.9,0.6c-0.8,0-1.5-0.2-2.1-0.6C224.3,75.7,223.7,75.2,223.3,74.5" fill="#ffffff" style="fill:#ffffff" />
		<path class="st1" d="M233.4,79.7c-0.5,0.8-0.8,1.6-0.9,2.5c-0.1,0.9-0.1,1.8,0.2,2.6c0.5,1.9,1.8,3.4,3.5,4.4    c0.8,0.4,1.7,0.7,2.6,0.9c0.3,0,0.6,0,0.9,0c0.6,0,1.3-0.1,1.9-0.2c0.9-0.2,1.8-0.7,2.6-1.3c0.8-0.6,1.4-1.3,1.9-2.2    c0.4-0.8,0.7-1.7,0.8-2.6c0.1-0.9,0-1.8-0.3-2.7c-0.3-0.9-0.7-1.7-1.3-2.5c-0.6-0.7-1.3-1.4-2.2-1.8c-1.6-0.9-3.5-1.1-5.2-0.6    c-0.9,0.3-1.8,0.7-2.6,1.3C234.5,78.2,233.8,78.9,233.4,79.7 M234.3,83.7c0.1-0.7,0.4-1.4,0.7-2c0.4-0.6,0.8-1.2,1.3-1.7    c0.5-0.5,1-1,1.5-1.4c0.5-0.4,1.1-0.8,1.8-1c0.6-0.2,1.3-0.2,1.9-0.1c0.7,0.1,1.4,0.5,2,1c0.6,0.5,1,1.1,1.2,1.8    c0.2,0.6,0.3,1.3,0.2,2c-0.1,0.7-0.3,1.4-0.6,2c-0.3,0.7-0.8,1.3-1.3,1.8c-0.5,0.5-1,1-1.6,1.4c-0.6,0.4-1.2,0.8-1.9,1    c-0.6,0.2-1.3,0.3-2,0.2c-0.7-0.1-1.4-0.5-1.9-1c-0.6-0.5-1-1.2-1.3-1.9C234.3,85.1,234.2,84.4,234.3,83.7" fill="#ffffff" style="fill:#ffffff" />
		<path class="st1" d="M249.8,90.5l-4.7,2.4l-1.1,0.6c-0.4,0.2-0.8,0.5-1.2,0.7c-0.4,0.2-0.7,0.4-1.1,0.5c-0.2,0.1-0.5,0.1-0.7,0.1    c-0.2-0.1-0.3-0.2-0.4-0.3c-0.1-0.1-0.2-0.3-0.3-0.5c-0.1-0.2-0.2-0.3-0.3-0.4c-0.2-0.1-0.4-0.1-0.6,0c-0.1,0.1-0.2,0.1-0.2,0.2    c-0.1,0.1-0.1,0.3,0,0.4c0.2,0.3,0.4,0.7,0.5,0.9l0.4,0.7c0.1,0.2,0.3,0.5,0.4,0.7s0.3,0.5,0.5,0.9c0.4,0.7,0.7,1.5,1,2.2    c0.3,0.8,0.6,1.5,1,2.3c0.1,0.1,0.2,0.2,0.4,0.2c0.1,0,0.2,0,0.3,0l0.9-0.2c0.4-0.1,0.9-0.2,1.3-0.2c0.5-0.1,1-0.1,1.6,0h0.1    l0.1-0.1c0.1-0.1,0.2-0.3,0.1-0.5c0-0.2-0.2-0.3-0.4-0.4c-0.2,0-0.4,0-0.5,0c-0.3,0-0.6,0-0.9,0c-0.3,0-0.7-0.1-1-0.1    c-0.3,0-0.5-0.1-0.7-0.2c-0.2-0.1-0.3-0.2-0.5-0.4c-0.2-0.2-0.5-0.5-0.6-0.8c-0.2-0.3-0.4-0.6-0.5-1c-0.1-0.3-0.2-0.7-0.1-1    c0-0.1,0.1-0.2,0.2-0.2c0.2-0.1,0.3-0.3,0.5-0.4c0.2-0.1,0.4-0.3,0.6-0.4c0.2-0.1,0.4-0.2,0.6-0.3l0.6-0.3l2.9-1.4l2.9-1.5    l0.3-0.1c0.1-0.1,0.2-0.1,0.4-0.1l0.3-0.1c0.1,0,0.2,0,0.2,0c0.1,0.1,0.2,0.2,0.3,0.3l0.3,0.5c0.1,0.2,0.2,0.3,0.3,0.4    c0.1,0.2,0.4,0.2,0.6,0.1c0.1-0.1,0.2-0.2,0.3-0.4v-0.1V93c-0.2-0.5-0.4-0.8-0.6-1.2c-0.2-0.3-0.4-0.7-0.6-1.1l0,0    c-0.2-0.4-0.3-0.7-0.5-1.1c-0.1-0.4-0.3-0.8-0.5-1.1c-0.1-0.1-0.1-0.3-0.2-0.4c-0.1-0.2-0.4-0.2-0.6-0.1c-0.2,0.1-0.3,0.4-0.2,0.6    l0.2,0.6c0.1,0.2,0.1,0.4,0.1,0.6c0,0.2-0.1,0.3-0.2,0.4c-0.2,0.2-0.4,0.3-0.6,0.4" fill="#ffffff" style="fill:#ffffff" />
		<path class="st1" d="M94,141.6c0.6,0.1,1.1,0.2,1.7,0.2c0.6,0,1.1,0,1.7,0l1-0.1l1-0.1l1.3-0.1l1.4-0.1c0.4,0,0.8,0,1.1,0    c0.1,0,0.3,0,0.4,0.1c0,0.1,0.1,0.2,0.1,0.3c0,0.2,0.1,0.4,0.1,0.6c0.1,0.2,0.1,0.4,0.2,0.5c0.1,0.2,0.3,0.3,0.5,0.3l0,0    c0.2,0,0.4-0.2,0.4-0.4v-0.1c0-0.3,0-0.6-0.1-1s-0.1-0.6-0.1-1c0-0.4,0-0.6,0-0.9s0-0.7,0-1c0-0.1,0-0.2-0.1-0.3    c-0.1-0.2-0.2-0.3-0.4-0.2c-0.2,0-0.4,0.1-0.5,0.3c-0.1,0.2-0.1,0.3-0.1,0.5c0,0.2,0,0.3,0,0.5c0,0.1,0,0.2-0.1,0.3    c-0.1,0.1-0.3,0.2-0.4,0.2c-0.3,0.1-0.6,0.1-0.8,0.1h-1h-0.9l-3.8,0.2c-0.3,0-0.7,0-1,0c-0.5-0.1-1-0.2-1.5-0.3    c-0.4-0.1-0.7-0.4-1-0.6c-0.3-0.3-0.5-0.6-0.6-1c-0.1-0.5-0.2-1-0.3-1.5c0-0.5,0-0.9,0.1-1.4c0.1-0.4,0.2-0.7,0.5-1    c0.3-0.3,0.6-0.6,1-0.8c0.6-0.2,1.1-0.4,1.7-0.4c0.4,0,0.7-0.1,1.1-0.1l1.1-0.1l3.3-0.2h0.6c0.2,0,0.4,0,0.6,0h0.5l0.3,0.1    c0.1,0,0.2,0.2,0.3,0.3c0.1,0.2,0.1,0.4,0.2,0.6c0,0.2,0.1,0.4,0.2,0.6c0.1,0.2,0.3,0.4,0.5,0.3c0.2,0,0.4-0.2,0.4-0.4    c0-0.1,0-0.3,0-0.4c0-0.4-0.1-0.8-0.1-1.2c-0.1-0.4-0.1-0.8-0.1-1.2c0-0.4,0-0.7,0-1.1c0-0.4,0-0.8,0-1.2c0-0.3-0.2-0.5-0.5-0.5    c0,0-0.1,0-0.1,0c-0.1,0-0.3,0.1-0.3,0.2c-0.1,0.1-0.1,0.2-0.1,0.3c0,0.1,0,0.2,0,0.3c0,0.1,0,0.2,0,0.2v0.2c0,0.1,0,0.3-0.1,0.4    c-0.1,0.1-0.2,0.2-0.4,0.2c-0.2,0.1-0.4,0.1-0.6,0.1h-0.6c-1,0.1-2,0.1-3,0.2c-1,0-2,0.1-3,0.1h-0.7h-0.3l-0.3,0.1    c-0.6,0.1-1.2,0.3-1.8,0.6c-0.4,0.3-0.8,0.7-1.1,1.2c-0.3,0.5-0.4,1-0.5,1.6c-0.1,0.6-0.1,1.2-0.1,1.8c0,0.5,0.1,1.1,0.2,1.6    c0.1,0.5,0.3,1.1,0.5,1.6c0.2,0.6,0.5,1.1,1,1.5C92.9,141.3,93.4,141.5,94,141.6" fill="#ffffff" style="fill:#ffffff" />
		<path class="st1" d="M101.7,159.8l3.6-1l0.5-0.1l0.8-0.2c0.2,0,0.5-0.1,0.7-0.1c0.1,0,0.3,0,0.4,0c0.1,0.1,0.2,0.1,0.2,0.2    c0.1,0.2,0.2,0.3,0.2,0.5c0.1,0.2,0.2,0.3,0.2,0.5c0.1,0.2,0.3,0.3,0.5,0.2c0.1,0,0.3-0.1,0.3-0.3c0-0.1,0-0.3,0-0.4    c-0.1-0.3-0.2-0.6-0.3-0.9s-0.2-0.6-0.3-0.9c-0.1-0.3-0.2-0.7-0.3-1.1s-0.2-0.8-0.3-1.1c0-0.1-0.1-0.2-0.2-0.3    c-0.1-0.1-0.3-0.2-0.5-0.1c-0.3,0.1-0.4,0.3-0.4,0.6c0,0,0,0,0,0c0,0.2,0.1,0.5,0.2,0.7c0.1,0.2,0.1,0.4,0.1,0.6    c0,0.2-0.1,0.3-0.2,0.4c-0.1,0.1-0.3,0.1-0.4,0.2l-0.5,0.2l-2.7,0.8c-0.9,0.3-1.8,0.5-2.7,0.8l-2.1,0.6h-0.1l2.1-3.2    c0.6-1,1.2-1.8,1.7-2.6s1-1.5,1.4-2.1s0.8-1.3,1.3-1.9c0.1-0.2,0.2-0.4,0.4-0.6c0.1-0.2,0.2-0.3,0.3-0.4c0.1-0.1,0.1-0.3,0.2-0.4    c0-0.2,0-0.4-0.1-0.6c-0.1-0.2-0.1-0.4-0.2-0.6c-0.1-0.2-0.1-0.3-0.2-0.5c0-0.2-0.1-0.5-0.2-0.7c-0.1-0.2-0.1-0.5-0.2-0.8    c0-0.1-0.1-0.3-0.2-0.4c-0.1-0.1-0.3-0.2-0.5-0.2c-0.2,0-0.3,0.2-0.3,0.3c0,0.1,0,0.3,0,0.4c0,0.1,0,0.3,0.1,0.4    c0,0.1,0,0.2,0,0.3c0,0.2,0,0.4,0,0.6c0,0.1-0.1,0.3-0.2,0.4c-0.1,0.1-0.2,0.2-0.3,0.2c-0.2,0.1-0.3,0.1-0.5,0.2    c-1.4,0.4-2.7,0.8-4.1,1.1l-4.1,1.1l-0.5,0.1c-0.2,0-0.3,0-0.5,0c-0.1,0-0.3,0-0.4-0.1c-0.1-0.1-0.2-0.2-0.3-0.3    c0-0.1-0.1-0.2-0.1-0.3c-0.1-0.1-0.1-0.3-0.2-0.4c-0.1-0.1-0.1-0.2-0.2-0.3c-0.1-0.1-0.3-0.2-0.4-0.1c-0.2,0-0.3,0.2-0.3,0.4    c0,0.1,0,0.3,0.1,0.4c0.1,0.4,0.2,0.8,0.4,1.2c0.1,0.4,0.2,0.7,0.4,1.1c0.1,0.4,0.2,0.7,0.3,1c0.1,0.3,0.2,0.7,0.3,1    c0,0.1,0.1,0.2,0.1,0.2c0.1,0.1,0.2,0.2,0.4,0.1c0.2,0,0.3-0.2,0.4-0.3c0-0.1,0.1-0.3,0.1-0.4c0-0.3-0.1-0.6-0.1-0.9    c0-0.2,0-0.3,0-0.5c0.1-0.2,0.2-0.3,0.3-0.3c0.3-0.2,0.7-0.3,1.1-0.4L98,150l1.9-0.6l1.7-0.5l1.7-0.5h0.2    c-0.1,0.2-0.2,0.4-0.3,0.5c-0.2,0.3-0.4,0.6-0.6,0.8l-2.1,3.2c-0.6,0.9-1.1,1.6-1.4,2.2l0,0.1l-0.8,1.3l-0.5,0.7l-0.2,0.3l0,0.1    l0,0c-0.3,0.4-0.6,0.9-0.9,1.3l-0.9,1.3l-0.1,0.2l-0.1,0.2c0,0.1-0.1,0.2-0.1,0.2c0,0.1,0,0.2,0,0.3c0.1,0.2,0.2,0.3,0.4,0.3h0.1    c0.2,0,0.4-0.1,0.6-0.1l3-0.9L101.7,159.8" fill="#ffffff" style="fill:#ffffff" />
		<path class="st1" d="M108.3,166.5c0.7-0.3,1.3-0.6,2-1c0.2-0.1,0.3-0.2,0.5-0.2c0.1,0,0.2,0,0.3,0c0.1,0,0.2,0.1,0.3,0.2    c0.1,0.2,0.3,0.4,0.4,0.6c0.1,0.2,0.2,0.3,0.3,0.4c0.2,0.2,0.4,0.2,0.6,0.1l0,0c0.1,0,0.1-0.1,0.2-0.1c0.1,0,0.1-0.1,0.1-0.2v-0.1    l-0.7-1.5c-0.1-0.2-0.2-0.3-0.3-0.5c-0.1-0.1-0.2-0.3-0.2-0.4c-0.2-0.3-0.3-0.6-0.4-0.9c-0.1-0.3-0.3-0.7-0.4-1l-0.1-0.2    c0-0.1-0.1-0.2-0.2-0.3c-0.1-0.2-0.3-0.2-0.5-0.1c-0.2,0.1-0.3,0.3-0.3,0.5c0,0.2,0,0.3,0.1,0.5c0.1,0.1,0.1,0.3,0.2,0.5    c0,0.1,0,0.3,0,0.4c-0.1,0.1-0.2,0.2-0.3,0.3c-0.2,0.1-0.4,0.2-0.5,0.3l-0.3,0.1l-0.8,0.4l-0.8,0.4l-6,2.9    c-0.2,0.1-0.4,0.2-0.6,0.3c-0.1,0-0.3,0-0.4,0c-0.1-0.1-0.2-0.1-0.3-0.2l-0.3-0.4c-0.1-0.1-0.2-0.3-0.3-0.4    c-0.1-0.1-0.3-0.2-0.5-0.1c-0.2,0.1-0.3,0.3-0.3,0.5c0,0.1,0,0.3,0.1,0.4l0.1,0.2c0.1,0.3,0.3,0.6,0.5,0.9    c0.2,0.3,0.3,0.5,0.5,0.8c0.2,0.3,0.3,0.6,0.4,0.9c0.1,0.3,0.3,0.6,0.4,0.9c0.1,0.2,0.2,0.3,0.3,0.5c0.1,0.1,0.2,0.2,0.4,0.2    c0.1,0,0.2,0,0.2-0.1c0.2-0.1,0.3-0.3,0.2-0.5c0-0.1-0.1-0.3-0.1-0.5l-0.2-0.5c0-0.1,0-0.3,0-0.4c0.1-0.2,0.2-0.3,0.3-0.4    c0.2-0.1,0.4-0.2,0.5-0.3l4.1-2C106.9,167.1,107.6,166.8,108.3,166.5" fill="#ffffff" style="fill:#ffffff" />
		<path class="st1" d="M115.6,179.5c0.7-0.1,1.4-0.3,2-0.5l0.4-0.1l0.5-0.1l0.5-0.1c0.1,0,0.2,0,0.3-0.1l0,0c0.1,0,0.3,0,0.4,0.1    c0.1,0.1,0.2,0.2,0.3,0.3c0.1,0.1,0.2,0.2,0.3,0.3c0.2,0.1,0.4,0.1,0.5-0.1c0.1-0.1,0.2-0.2,0.2-0.3c0-0.1,0-0.3-0.1-0.4    c-0.2-0.2-0.3-0.4-0.5-0.6c-0.2-0.2-0.3-0.4-0.5-0.6c-0.2-0.3-0.4-0.7-0.6-1c-0.2-0.3-0.4-0.7-0.6-1c-0.1-0.1-0.2-0.2-0.3-0.2    c-0.1,0-0.3,0-0.4,0.1c-0.2,0.1-0.3,0.4-0.2,0.7c0.1,0.2,0.2,0.4,0.3,0.6c0.1,0.2,0.2,0.4,0.2,0.6c0,0.1,0,0.2-0.2,0.3    c-0.2,0.1-0.4,0.2-0.6,0.2c-0.4,0.1-0.9,0.3-1.4,0.4l-1.8,0.5l-1.9,0.5l-1.6,0.4c-0.5,0.1-0.8,0.2-1,0.2h-0.2h-0.2h-0.1    c0.1-0.2,0.2-0.4,0.3-0.5c0.2-0.4,0.5-0.8,0.9-1.4l1.2-1.6l1.2-1.8l1-1.5c0.3-0.4,0.5-0.7,0.6-0.9l0.1-0.1v-0.1    c0.1-0.1,0.2-0.1,0.2,0c0.1,0.1,0.3,0.2,0.4,0.4c0.1,0.2,0.2,0.3,0.4,0.4c0.1,0.2,0.4,0.2,0.6,0.1c0,0,0,0,0,0    c0.1-0.1,0.2-0.2,0.2-0.4c0-0.2,0-0.3-0.1-0.4c-0.2-0.3-0.5-0.7-0.8-1s-0.5-0.6-0.8-1c-0.2-0.2-0.3-0.5-0.4-0.7    c-0.1-0.3-0.3-0.5-0.5-0.8l-0.1-0.2c-0.1-0.1-0.2-0.2-0.3-0.3c-0.1-0.1-0.4-0.1-0.5,0c-0.2,0.1-0.3,0.4-0.2,0.6    c0.1,0.2,0.1,0.3,0.2,0.5c0.1,0.2,0.1,0.4,0.2,0.5c0,0.2,0,0.3-0.1,0.5c-0.7,1.2-1.4,2.4-2.2,3.5s-1.5,2.3-2.3,3.4l-1.2,1.9    l-1.2,1.9c0,0.1-0.1,0.2-0.1,0.2c-0.1,0.2,0.1,0.5,0.3,0.6c0,0,0,0,0.1,0c0.1,0,0.1,0,0.2,0c1.2-0.3,2.3-0.5,3.4-0.8l3.4-0.8    L115.6,179.5" fill="#ffffff" style="fill:#ffffff" />
		<path class="st1" d="M122.6,190.6c0,0.1-0.1,0.1-0.1,0.2c-0.1,0.1-0.2,0.2-0.2,0.4c-0.1,0.1-0.1,0.2-0.2,0.4    c-0.1,0.2,0,0.3,0.1,0.5c0.1,0.1,0.2,0.1,0.3,0.1c0.1,0,0.2-0.1,0.3-0.1c0.1-0.1,0.1-0.1,0.2-0.2l0.1-0.2c0.2-0.2,0.3-0.4,0.5-0.6    c0.2-0.2,0.3-0.4,0.5-0.5c0.2-0.2,0.3-0.4,0.5-0.5l0.5-0.5c0.1-0.1,0.2-0.2,0.3-0.3c0.1-0.1,0.1-0.4,0-0.5c0,0,0,0,0,0    c-0.1-0.1-0.3-0.2-0.4-0.1l-0.2,0.1h-0.1c-0.2,0.2-0.4,0.3-0.7,0.4c-0.3,0-0.5,0-0.7-0.2c-0.3-0.2-0.5-0.4-0.7-0.6l-0.7-0.7    c-0.1-0.1-0.1-0.1-0.2-0.2c-0.1-0.1-0.2-0.1-0.2-0.2c-0.1-0.1-0.1-0.1-0.2-0.2c0,0,0-0.1,0-0.1c0.1-0.1,0.1-0.1,0.2-0.2l0.3-0.3    c0.3-0.3,0.6-0.6,0.8-0.9s0.5-0.6,0.8-0.9c0.1-0.1,0.3-0.3,0.4-0.4c0.1-0.1,0.3-0.2,0.4-0.3c0.3-0.2,0.7-0.1,0.9,0.2l0.6,0.6    l0.5,0.5l0.5,0.6c0.2,0.2,0.3,0.4,0.4,0.5c0.1,0.1,0.2,0.2,0.2,0.4c0.1,0.2,0.1,0.3,0,0.5c-0.1,0.2-0.1,0.4-0.2,0.6    c-0.1,0.2-0.2,0.4-0.2,0.6c-0.1,0.2-0.1,0.4,0.1,0.6l0,0c0.1,0.1,0.3,0.1,0.6-0.1c0.2-0.1,0.4-0.3,0.5-0.5l0.4-0.4    c0.1-0.1,0.2-0.2,0.3-0.3c0.2-0.2,0.3-0.4,0.4-0.6c0.1-0.2,0.1-0.4-0.1-0.5c-0.1-0.1-0.2-0.2-0.3-0.3l-0.1-0.1    c-0.6-0.6-1.2-1.1-1.8-1.7s-1.2-1.1-1.8-1.7c-0.3-0.3-0.6-0.6-0.9-0.9s-0.6-0.6-0.9-0.9c-0.1-0.1-0.2-0.2-0.3-0.3    c-0.1-0.1-0.2-0.2-0.3-0.3c-0.1-0.1-0.2-0.2-0.4-0.2c-0.2-0.1-0.4,0-0.5,0.1c-0.2,0.2-0.2,0.5,0,0.6c0.1,0.1,0.2,0.3,0.4,0.5    c0.1,0.2,0.2,0.3,0.3,0.5c0,0,0.1,0.2-0.2,0.5c0,0-0.1,0.1-0.1,0.1l-0.3,0.3c-0.7,0.7-1.3,1.4-2,2.1l-2,2.1    c-0.2,0.2-0.4,0.5-0.7,0.8c-0.3,0.3-0.5,0.6-0.8,0.9c-0.2,0.3-0.5,0.5-0.8,0.7c-0.2,0.1-0.3,0.3-0.5,0.3c-0.2,0-0.3,0-0.5-0.1    c-0.2-0.1-0.4-0.2-0.6-0.3l-0.5-0.3c-0.2-0.1-0.5-0.1-0.6,0.2c-0.1,0.1-0.1,0.3,0,0.5l0.3,0.3c0.1,0.1,0.3,0.2,0.4,0.4l0.4,0.3    l6.1,5.9c0.1,0.1,0.3,0.2,0.5,0.2h0.1h0.1l0.8-0.5l0.6-0.4l0.3-0.2c0.1,0,0.2-0.1,0.2-0.1l0.1-0.1c0.1,0,0.2-0.1,0.3-0.2    c0.1-0.2,0.1-0.4-0.1-0.5c-0.2-0.1-0.4-0.2-0.6-0.1l-0.7,0.2c-0.2,0.1-0.5,0.2-0.8,0.2c-0.2,0-0.4,0-0.6,0c-0.1,0-0.2-0.1-0.3-0.1    c-0.1-0.1-0.3-0.2-0.4-0.3l-0.4-0.4l-0.4-0.3l-0.4-0.4l-0.4-0.4c-0.2-0.2-0.4-0.4-0.5-0.6s-0.3-0.4-0.5-0.6    c-0.1-0.1-0.2-0.2-0.2-0.4c0-0.1,0-0.2,0-0.3c0-0.1,0.1-0.3,0.2-0.4c0.1-0.1,0.2-0.2,0.3-0.4l0.3-0.3l2-2c0.1-0.1,0.1-0.1,0.2-0.2    c0.1-0.2,0.3-0.3,0.5-0.4l0.2,0.1c0.1,0.1,0.2,0.1,0.2,0.2l0.2,0.2l0.2,0.1l0.6,0.5c0.2,0.2,0.4,0.4,0.5,0.6    c0.1,0.2,0.2,0.4,0.3,0.6c0.1,0.2,0,0.3-0.1,0.5L122.6,190.6z" fill="#ffffff" style="fill:#ffffff" />
		<path class="st1" d="M135.6,198.2c0.4-0.1,0.7-0.2,1.1-0.4c0.3-0.2,0.6-0.5,0.9-0.8c0.4-0.5,0.6-1.1,0.7-1.8c0-0.5,0-1-0.2-1.5    c-0.2-0.5-0.4-0.9-0.8-1.2c-0.3-0.3-0.6-0.6-1-0.9c-0.4-0.3-0.8-0.5-1.2-0.8c-0.4-0.2-0.8-0.5-1.1-0.8l-1.3-0.9    c-0.1-0.1-0.2-0.2-0.3-0.2l-0.3-0.2c-0.1-0.1-0.2-0.1-0.4-0.2c-0.2-0.1-0.4,0-0.6,0.2c-0.1,0.1-0.1,0.3,0,0.5    c0.1,0.1,0.2,0.2,0.3,0.3c0.1,0.1,0.2,0.2,0.4,0.3c0.1,0.1,0.2,0.2,0.3,0.3c0.1,0.1,0.1,0.2,0.1,0.3c0,0.2-0.1,0.3-0.2,0.4    c-0.6,0.8-1.1,1.7-1.7,2.5s-1.1,1.6-1.7,2.5l-2.1,3.1c-0.1,0.1-0.2,0.3-0.4,0.3c-0.1,0.1-0.3,0.1-0.4,0.1c-0.1,0-0.3-0.1-0.4-0.1    l-0.4-0.2c-0.1-0.1-0.2-0.1-0.4-0.1c-0.2-0.1-0.3,0-0.4,0.1c-0.1,0.1-0.2,0.3-0.1,0.5c0.1,0.1,0.2,0.2,0.3,0.3    c0.3,0.2,0.7,0.4,1,0.6c0.3,0.2,0.6,0.4,0.9,0.6c0.3,0.2,0.7,0.5,1,0.8c0.3,0.3,0.7,0.5,1,0.8c0.2,0.1,0.3,0.2,0.5,0.3    c0.2,0.1,0.4,0,0.5-0.2c0.1-0.1,0.1-0.3,0-0.4c-0.1-0.1-0.2-0.2-0.2-0.2l0,0l0,0l-0.5-0.5c-0.2-0.1-0.3-0.3-0.4-0.5    c-0.1-0.1-0.1-0.2-0.1-0.4c0-0.2,0.1-0.4,0.3-0.6l2.1-3c0.2-0.3,0.3-0.4,0.3-0.4s0.1,0,0.2,0.1c0.3,0.2,0.5,0.5,0.6,0.8    c0.1,0.3,0.2,0.7,0.2,1c0,0.4,0,0.8-0.1,1.2c-0.1,0.4-0.2,0.9-0.2,1.3c-0.2,1-0.2,2,0,2.9c0.2,1,0.7,1.9,1.5,2.6l0.2,0.2l0.3,0.2    c0.2,0.1,0.4,0.3,0.6,0.3h0.1c0.2,0,0.3-0.1,0.4-0.2c0.1-0.2,0.1-0.4-0.1-0.5c-0.1-0.1-0.2-0.2-0.2-0.3c-0.3-0.3-0.6-0.8-0.7-1.2    c-0.1-0.5-0.2-1-0.2-1.5c0-0.5,0-1.1,0.1-1.6c0.1-0.6,0.2-1.1,0.2-1.6c0.1-0.5,0.1-0.9,0.1-1.4c0-0.2,0-0.5-0.1-0.7    c0.2,0,0.5,0,0.8,0C134.8,198.3,135.2,198.2,135.6,198.2 M134.7,196.6c-0.3,0.2-0.6,0.3-1,0.3l0,0c-0.3,0-0.7-0.1-1-0.2    c-0.4-0.2-0.8-0.4-1.1-0.6c-0.1-0.1-0.2-0.2-0.3-0.3c0,0,0-0.1,0-0.1c0-0.1,0.1-0.1,0.1-0.2c0.1-0.1,0.2-0.2,0.3-0.4    c0.3-0.4,0.6-0.8,0.9-1.3l0.9-1.3l0.3-0.5c0.1-0.2,0.2-0.3,0.4-0.4h0.1c0.2,0,0.4,0.1,0.6,0.2c0.3,0.2,0.6,0.5,0.9,0.8    c0.4,0.6,0.6,1.3,0.5,1.9c-0.1,0.4-0.3,0.8-0.5,1.1C135.5,196.1,135.2,196.4,134.7,196.6" fill="#ffffff" style="fill:#ffffff" />
		<path class="st1" d="M148.2,199.3c0.1-0.2,0.2-0.3,0.3-0.5c0.1-0.1,0.1-0.3,0.2-0.4c0.1-0.2,0-0.4-0.2-0.4c-0.2-0.1-0.4-0.1-0.6,0    c-0.1,0.1-0.3,0.1-0.4,0.2c-0.1,0.1-0.1,0.1-0.2,0.1c0,0,0,0-0.1-0.1c-0.2-0.3-0.4-0.5-0.6-0.7c-0.2-0.2-0.5-0.4-0.7-0.6    c-0.5-0.2-1-0.4-1.5-0.5c-0.5-0.1-1,0-1.5,0.1c-0.5,0.1-0.9,0.4-1.3,0.7c-0.4,0.4-0.8,0.8-1,1.3c-0.3,0.5-0.4,1.2-0.3,1.8    c0.1,0.6,0.3,1.1,0.6,1.6c0.3,0.5,0.6,1,1,1.5c0.4,0.4,0.7,0.9,1,1.4c0.2,0.4,0.4,0.9,0.6,1.4c0.1,0.5,0,0.9-0.2,1.4    c-0.1,0.3-0.3,0.6-0.6,0.8c-0.4,0.4-1,0.6-1.6,0.5c-0.3,0-0.6-0.1-0.9-0.3c-0.4-0.2-0.8-0.5-1-0.9c-0.3-0.4-0.4-0.8-0.4-1.3    c0-0.1,0-0.3,0-0.4l0.1-0.5c0-0.1,0.1-0.3,0.1-0.4c0-0.2-0.1-0.3-0.2-0.4h-0.1c0,0-0.1-0.1-0.2-0.1c-0.1,0-0.2,0-0.3,0    c-0.1,0-0.2,0.1-0.3,0.2c-0.1,0.3-0.3,0.5-0.4,0.8l-0.4,0.8c-0.1,0.2-0.2,0.3-0.2,0.4c-0.1,0.2-0.2,0.4-0.3,0.6    c-0.1,0.2-0.2,0.3-0.2,0.5c-0.1,0.3,0.1,0.5,0.1,0.5c0.2,0.1,0.4,0.1,0.6,0.1c0.1,0,0.3-0.1,0.4-0.2c0.1-0.1,0.2-0.1,0.2-0.1    c0,0,0.1,0,0.2,0c0.1,0.1,0.2,0.1,0.3,0.2l0.4,0.4c0.1,0.1,0.3,0.3,0.4,0.4c0.2,0.2,0.4,0.3,0.6,0.4c0.5,0.3,1.1,0.4,1.7,0.5    c0.2,0,0.4,0,0.6,0c0.4,0,0.7,0,1.1-0.1c0.5-0.2,1-0.4,1.4-0.8c0.5-0.4,0.8-0.9,1.1-1.5c0.3-0.6,0.4-1.2,0.4-1.8    c0-0.6-0.2-1.2-0.5-1.8c-0.3-0.5-0.6-0.9-1-1.3c-0.4-0.4-0.7-0.9-1-1.4c-0.3-0.4-0.5-0.9-0.6-1.4c-0.1-0.4-0.1-0.9,0.1-1.3    c0.1-0.2,0.3-0.5,0.5-0.6c0.2-0.2,0.4-0.3,0.7-0.3c0.3,0,0.5,0,0.8,0c0.3,0,0.5,0.1,0.8,0.2c0.3,0.2,0.6,0.4,0.8,0.8    c0.2,0.4,0.3,0.8,0.3,1.2c0,0.1,0,0.3,0,0.4c0,0.2-0.1,0.3-0.1,0.5c0,0.1-0.1,0.3-0.1,0.4c0,0.2,0.1,0.3,0.2,0.4h0.1    c0,0,0.1,0.1,0.2,0.1c0.1,0,0.2,0,0.3,0c0.1-0.1,0.2-0.1,0.3-0.2c0.3-0.5,0.6-1.1,0.9-1.7C148.1,199.6,148.2,199.5,148.2,199.3" fill="#ffffff" style="fill:#ffffff" />
		<path class="st1" d="M157.1,201.6l-1.6-0.5l-0.5-0.1l-0.5-0.1c-0.3-0.1-0.7-0.2-1-0.4c-0.3-0.1-0.7-0.3-1-0.4l-0.2-0.1    c-0.1,0-0.2-0.1-0.3-0.1c-0.2,0-0.4,0.1-0.4,0.3c-0.1,0.2,0,0.4,0.1,0.6c0.1,0.1,0.3,0.2,0.4,0.2c0.1,0.1,0.3,0.1,0.5,0.2    c0.1,0.1,0.2,0.1,0.3,0.3c0,0.1,0,0.3,0,0.4c0,0.2-0.1,0.4-0.1,0.6l-0.1,0.3c-0.1,0.3-0.2,0.6-0.3,0.8s-0.2,0.6-0.3,0.9l-2.1,6.3    c-0.1,0.2-0.2,0.4-0.3,0.6c0,0.1-0.1,0.2-0.3,0.3c-0.1,0.1-0.3,0.1-0.4,0.1c-0.2,0-0.4,0-0.5-0.1c-0.2,0-0.3,0-0.5,0    c-0.2,0-0.4,0.1-0.4,0.3c-0.1,0.2,0,0.4,0.1,0.5c0.1,0.1,0.2,0.2,0.4,0.2l0.2,0.1c0.3,0.1,0.7,0.2,1,0.2c0.3,0.1,0.6,0.1,0.9,0.2    c0.3,0.1,0.6,0.2,0.9,0.4c0.3,0.1,0.7,0.3,1,0.4c0.2,0.1,0.4,0.1,0.5,0.1h0.1c0.2,0,0.4-0.1,0.4-0.3c0.1-0.2,0-0.4-0.2-0.5    c-0.1-0.1-0.3-0.2-0.4-0.2l-0.5-0.3c-0.1-0.1-0.2-0.1-0.3-0.2c-0.1-0.1-0.1-0.3-0.1-0.5c0-0.2,0.1-0.4,0.2-0.6l1.4-4.4    c0.2-0.7,0.5-1.4,0.7-2.1s0.5-1.4,0.7-2.1c0.1-0.2,0.1-0.4,0.2-0.5c0-0.1,0.1-0.2,0.2-0.2c0.1-0.1,0.2-0.1,0.3-0.1    c0.2,0,0.5,0.1,0.7,0.1c0.2,0.1,0.3,0.1,0.5,0.1c0.2,0,0.4-0.1,0.5-0.4l0,0c0-0.1,0-0.1,0-0.2c0-0.1,0-0.1,0-0.2L157.1,201.6z" fill="#ffffff" style="fill:#ffffff" />
		<path class="st1" d="M170.8,203.5c-0.1,0-0.3,0-0.4,0.1c-0.1,0.1-0.1,0.1-0.2,0.2c-0.1,0.1-0.2,0.1-0.3,0.2    c-0.1,0-0.2,0.1-0.3,0.1c-0.2,0-0.3,0-0.5,0l-0.5-0.1l-1.6-0.3c-0.5-0.1-1.1-0.2-1.6-0.2s-1.4-0.2-2.2-0.4    c-0.7-0.1-1.5-0.3-2.2-0.4c-0.1,0-0.2-0.1-0.3-0.1c-0.1-0.1-0.1-0.1-0.2-0.2l-0.1-0.2c-0.1-0.1-0.2-0.2-0.3-0.2    c-0.2,0-0.4,0-0.5,0.1c-0.1,0.1-0.2,0.2-0.3,0.3c-0.1,0.1-0.1,0.3-0.2,0.4l-0.1,0.4c-0.1,0.5-0.3,0.9-0.4,1.4    c-0.1,0.3-0.2,0.5-0.3,0.8c0,0.2,0,0.3,0.1,0.4c0.1,0.1,0.2,0.2,0.4,0.2c0.1,0,0.3-0.1,0.4-0.3c0.1-0.2,0.3-0.3,0.4-0.5l0.4-0.5    c0.1-0.1,0.2-0.2,0.2-0.3c0.2-0.2,0.5-0.3,0.7-0.3c0.2,0,0.5,0,0.8,0l1.1,0.2c0.3,0,0.5,0.1,0.8,0.2c0.1,0,0.2,0.1,0.2,0.1    c0,0.1,0,0.2,0,0.3c0,0.1,0,0.3,0,0.3l-1.4,8.6c0,0.3-0.1,0.5-0.2,0.8c-0.1,0.2-0.2,0.4-0.3,0.5c-0.1,0.1-0.3,0.2-0.4,0.2    c-0.3,0-0.6,0-0.8,0h-0.2c-0.1,0-0.3,0-0.4,0c-0.2,0-0.3,0.2-0.4,0.4c-0.1,0.2,0.1,0.4,0.3,0.4c0,0,0,0,0,0c0.1,0,0.2,0.1,0.3,0.1    c0.4,0.1,0.9,0.1,1.3,0.2c0.4,0,0.8,0.1,1.3,0.2s0.9,0.2,1.4,0.3s0.9,0.2,1.4,0.3h0.4l0,0c0.1,0,0.3-0.1,0.3-0.4    c0-0.1,0-0.4-0.4-0.5l-0.7-0.2c-0.2-0.1-0.5-0.2-0.6-0.3c-0.2-0.1-0.3-0.4-0.2-0.6c0-0.2,0-0.4,0-0.6c0-0.2,0.1-0.4,0.1-0.6    c0.2-1,0.4-2.1,0.5-3.1c0.1-1,0.3-2.1,0.5-3.1l0.4-2.2c0-0.2,0.1-0.4,0.1-0.6c0.1-0.1,0.1-0.2,0.2-0.2l0.2,0.1h0.4l0.5,0.1    l0.7,0.1l0.7,0.2c0.2,0.1,0.4,0.2,0.5,0.3c0.1,0.1,0.2,0.2,0.2,0.3c0,0.2,0,0.3,0,0.5c0,0.2-0.1,0.4-0.1,0.5    c0,0.2-0.1,0.3-0.1,0.5c0,0.2,0.2,0.4,0.4,0.4c0.2,0,0.4,0,0.6-0.4c0.1-0.3,0.3-0.6,0.3-0.9c0.1-0.4,0.2-0.7,0.3-1.1    c0.1-0.3,0.2-0.6,0.3-0.8l0,0c0.1-0.2,0.1-0.4,0.1-0.6C171.2,203.6,171,203.5,170.8,203.5" fill="#ffffff" style="fill:#ffffff" />
		<path class="st1" d="M186.2,204.1c-0.2-0.1-0.4-0.1-0.5-0.1c-0.3,0-0.6,0-0.9,0.1c-0.3,0.1-0.6,0.1-0.9,0.1c-0.3,0-0.5,0-0.8,0    c-0.3,0-0.6,0-0.8,0c-0.1,0-0.2,0-0.3,0c-0.1,0-0.2,0.1-0.2,0.4c0,0.2,0.2,0.4,0.4,0.5c0.2,0,0.4,0,0.6,0c0.2,0,0.3,0,0.5,0.1    c0.1,0,0.1,0,0.1,0.2c0,0.1-0.1,0.2-0.2,0.3c-0.1,0.2-0.3,0.5-0.5,0.8l-0.7,1.1l-0.7,1.1c-0.2,0.3-0.4,0.6-0.6,0.9    c-0.1,0.2-0.2,0.3-0.4,0.5l-0.1,0.1L180,210c-0.3-0.4-0.6-0.8-0.9-1.1l-0.9-1.2c-0.1-0.1-0.2-0.3-0.4-0.5s-0.3-0.4-0.5-0.6    c-0.1-0.2-0.3-0.4-0.4-0.6c-0.1-0.1-0.1-0.3-0.2-0.4c0-0.1,0-0.1,0.1-0.1c0.2,0,0.3-0.1,0.5-0.1c0.2,0,0.4,0,0.6-0.1    c0.2,0,0.4-0.3,0.4-0.5c0-0.1-0.1-0.3-0.2-0.3c-0.1-0.1-0.2-0.1-0.3-0.1c-0.5,0-0.9,0-1.4,0.1c-0.4,0-0.9,0.1-1.3,0.1    c-0.3,0-0.7,0-1,0c-0.3,0-0.7,0-1,0c-0.1,0-0.2,0-0.3,0c-0.2,0-0.3,0.2-0.3,0.4c0,0.2,0.1,0.4,0.3,0.4l0.5,0.1    c0.2,0,0.4,0.1,0.6,0.2c0.2,0.1,0.3,0.2,0.4,0.3c0.7,0.9,1.3,1.8,2,2.7c0.7,0.9,1.3,1.8,2,2.7c0.1,0.2,0.2,0.4,0.2,0.6    c0,0.2,0,0.6,0,0.9v1.6c0,0.2,0,0.4,0,0.7s0,0.4,0,0.7c0,0.2,0,0.4-0.1,0.5c0,0.1,0,0.2-0.1,0.3c-0.1,0.1-0.3,0.2-0.4,0.2    l-0.6,0.1c-0.2,0-0.4,0.1-0.6,0.2c-0.2,0.1-0.3,0.4-0.2,0.6c0,0.1,0.1,0.2,0.2,0.2h0.2l0,0c0.4,0,0.9-0.1,1.3-0.1    c0.4-0.1,0.8-0.1,1.3-0.1s0.9,0,1.4,0c0.5,0,0.9,0,1.4,0c0.2,0,0.3-0.1,0.4-0.2c0.1-0.1,0.1-0.3,0.1-0.4v-0.1    c-0.1-0.2-0.2-0.3-0.4-0.3c-0.2,0-0.3-0.1-0.5-0.1h-0.5c-0.1,0-0.3,0-0.4-0.1c-0.1-0.1-0.2-0.2-0.3-0.3c-0.1-0.2-0.1-0.4-0.1-0.6    l-0.1-3.6c0-0.3,0.1-0.5,0.2-0.8c0.1-0.3,0.3-0.6,0.5-0.8c0.2-0.3,0.4-0.6,0.6-0.8s0.4-0.5,0.6-0.8l1.2-1.6    c0.4-0.6,0.8-1.1,1.2-1.6c0.1-0.1,0.2-0.2,0.3-0.3c0.1-0.1,0.3-0.1,0.4-0.1l0.4-0.1c0.2,0,0.3-0.1,0.4-0.3c0-0.1,0-0.2,0-0.4    c0-0.1-0.1-0.2-0.2-0.2" fill="#ffffff" style="fill:#ffffff" />
		<path class="st1" d="M208.9,201.4c-0.6-0.7-1.4-1.2-2.2-1.5c-0.8-0.4-1.7-0.5-2.6-0.6c-0.9,0-1.9,0.1-2.8,0.4    c-0.9,0.3-1.7,0.8-2.4,1.4c-1.3,1.2-2.1,2.9-2.2,4.8c0,1,0.1,1.9,0.5,2.8c0.3,0.9,0.8,1.7,1.4,2.5c0.6,0.7,1.3,1.2,2.1,1.6    c0.8,0.4,1.7,0.6,2.5,0.6h0.3c0.8,0,1.7-0.2,2.4-0.4c0.9-0.3,1.8-0.8,2.5-1.5c1.4-1.3,2.2-3,2.3-4.9c0.1-1-0.1-1.9-0.4-2.8    C210,203,209.5,202.1,208.9,201.4 M208.9,208c0,0.7-0.2,1.3-0.5,1.9c-0.4,0.7-0.9,1.2-1.6,1.5c-0.7,0.4-1.4,0.6-2.2,0.6    c-0.7,0-1.4-0.2-2-0.5c-0.6-0.3-1.2-0.8-1.6-1.3c-0.5-0.5-0.9-1.1-1.3-1.8c-0.4-0.6-0.6-1.2-0.9-1.9c-0.2-0.6-0.4-1.3-0.3-2    c0-0.7,0.2-1.3,0.5-1.9c0.4-0.7,0.9-1.2,1.6-1.5c0.6-0.4,1.3-0.6,2.1-0.6l0,0c0.7,0,1.3,0.1,1.9,0.4c0.6,0.3,1.2,0.7,1.7,1.2    c0.5,0.5,1,1.1,1.4,1.8c0.4,0.6,0.6,1.3,0.9,1.9C208.7,206.6,208.8,207.3,208.9,208" fill="#ffffff" style="fill:#ffffff" />
		<path class="st1" d="M220.8,204.7c-0.2,0.1-0.4,0.1-0.6,0.2c-0.2,0.1-0.4,0.2-0.6,0.2c-0.2,0-0.4,0-0.5-0.1c0,0-0.1-0.1-0.1-0.1    c-0.1-0.1-0.1-0.2-0.2-0.3c-0.1-0.1-0.1-0.2-0.2-0.3l-0.4-0.7c-0.3-0.5-0.5-0.9-0.8-1.4s-0.5-0.9-0.8-1.4c0-0.1,0-0.1,0-0.1    c0-0.1,0.1-0.1,0.2-0.2c0.1-0.1,0.2-0.1,0.3-0.2l0.3-0.2l0.4-0.2l0.8-0.4c0.2-0.1,0.4-0.2,0.7-0.3c0.2-0.1,0.4,0,0.6,0.1    c0.2,0.1,0.4,0.2,0.5,0.4l0.4,0.4c0.1,0.2,0.4,0.2,0.6,0.1c0.1-0.1,0.2-0.2,0.2-0.3c0-0.1,0-0.2,0-0.3c0-0.1-0.1-0.2-0.1-0.3    l-0.1-0.2c-0.1-0.2-0.3-0.5-0.4-0.7c-0.1-0.2-0.3-0.4-0.4-0.6s-0.2-0.4-0.4-0.7s-0.2-0.4-0.4-0.7c0-0.1-0.1-0.2-0.2-0.2    c-0.1-0.2-0.3-0.2-0.4-0.1c-0.2,0.1-0.3,0.3-0.3,0.4c0,0.1,0,0.3,0.1,0.4c0,0.1,0.1,0.3,0.1,0.5c0,0.1,0,0.3,0,0.4    c0,0.1-0.1,0.2-0.2,0.3c-0.1,0.1-0.3,0.3-0.4,0.4l-0.5,0.4l-0.6,0.3l-0.6,0.3l-0.3,0.2c-0.1,0-0.1,0.1-0.2,0.1c0,0-0.1,0-0.1,0    c-0.1-0.1-0.2-0.2-0.2-0.2c-0.3-0.5-0.6-0.9-0.8-1.4s-0.6-0.9-0.8-1.4c-0.1-0.2-0.2-0.4-0.3-0.6c-0.1-0.2-0.1-0.3,0-0.5    c0.1-0.2,0.2-0.3,0.4-0.4c0.2-0.2,0.4-0.3,0.6-0.4l0.3-0.2l0.4-0.3l0.6-0.3l0.6-0.3c0.1-0.1,0.3-0.1,0.4-0.1c0.2,0,0.4,0,0.6,0.1    c0.2,0.1,0.3,0.3,0.5,0.4c0.1,0.2,0.3,0.3,0.4,0.4c0.2,0.2,0.4,0.2,0.6,0.1c0.1-0.1,0.2-0.2,0.2-0.3c0-0.1,0-0.2,0-0.3    c0-0.1-0.1-0.2-0.1-0.2l-0.1-0.2c0-0.1-0.1-0.2-0.2-0.4s-0.2-0.4-0.4-0.6c-0.1-0.2-0.2-0.4-0.4-0.5c-0.1-0.1-0.2-0.3-0.5-0.2h-0.1    l-0.2,0.1l-0.3,0.2l-1.4,0.8l-1.4,0.8l-2.4,1.4l-0.5,0.3l-0.7,0.4l-0.6,0.4c-0.1,0.1-0.2,0.2-0.4,0.3c-0.1,0.1-0.1,0.2-0.1,0.3    c0,0.1,0,0.2,0.1,0.3l0,0c0.1,0.2,0.3,0.2,0.4,0.2c0.1,0,0.3-0.1,0.4-0.1l0.4-0.2c0.1-0.1,0.2-0.1,0.4-0.1c0.1,0,0.2,0,0.4,0.1    c0.2,0.1,0.3,0.2,0.4,0.4c0.6,1,1.2,2,1.8,3s1.2,2,1.8,3l0.3,0.6c0.1,0.2,0.2,0.4,0.4,0.6s0.2,0.4,0.4,0.7s0.2,0.4,0.3,0.6    c0.1,0.1,0.1,0.2,0.1,0.3c0,0.2,0,0.4-0.2,0.5c-0.1,0.1-0.1,0.1-0.2,0.2c-0.1,0.1-0.2,0.2-0.4,0.3c-0.1,0.1-0.2,0.2-0.3,0.3    c-0.1,0.1-0.1,0.3,0,0.5c0.1,0.1,0.2,0.2,0.3,0.2c0.1,0,0.1,0,0.2,0c0.1,0,0.2-0.1,0.3-0.2c0.3-0.2,0.6-0.4,0.9-0.6    c0.3-0.2,0.5-0.4,0.8-0.6c0.4-0.2,0.8-0.4,1.2-0.6s0.8-0.4,1.2-0.6l0.1-0.1c0.1-0.1,0.2-0.2,0.3-0.3c0.1-0.1,0.1-0.4,0-0.5    C221.3,204.7,221.1,204.6,220.8,204.7" fill="#ffffff" style="fill:#ffffff" />
		<path class="st1" d="M240.2,188.9l-0.6,0.4c-0.2,0.2-0.4,0.3-0.6,0.4c-0.2,0.1-0.4,0-0.6-0.1c-0.2-0.1-0.3-0.2-0.4-0.3l-0.4-0.4    c-0.7-0.8-1.5-1.5-2.3-2.2s-1.5-1.4-2.3-2.2l-1.5-1.6c-0.1-0.1-0.3-0.3-0.4-0.4c-0.1-0.1-0.1-0.2-0.1-0.2l0.2-0.2l0.2-0.3l0.3-0.4    c0.2-0.2,0.3-0.3,0.5-0.5s0.4-0.3,0.6-0.5c0.2-0.1,0.3-0.2,0.5-0.3c0.1,0,0.2,0,0.4,0c0.2,0.1,0.3,0.2,0.4,0.3l0.4,0.4    c0.1,0.1,0.2,0.2,0.4,0.3c0.2,0.1,0.4,0.1,0.5-0.1c0.1-0.1,0.2-0.4,0-0.8c-0.2-0.3-0.3-0.6-0.6-0.8l-0.7-0.9    c-0.2-0.2-0.4-0.5-0.5-0.7c-0.1-0.2-0.2-0.3-0.4-0.4c-0.2-0.1-0.5,0-0.6,0.1c-0.1,0.1-0.1,0.2-0.1,0.4c0,0.1,0,0.2,0.1,0.3    c0,0.1,0,0.2,0,0.3c0,0.1,0,0.2-0.1,0.3c-0.1,0.1-0.2,0.3-0.3,0.4l-0.4,0.4l-1.1,1.2c-0.4,0.4-0.7,0.8-1.1,1.2    c-0.5,0.5-1,1-1.6,1.6c-0.5,0.5-1.1,1-1.6,1.5c-0.1,0.1-0.2,0.1-0.3,0.2c-0.1,0-0.2,0-0.3,0h-0.2c-0.1,0-0.2,0-0.3,0.1    c-0.1,0.1-0.2,0.3-0.2,0.5c0,0.1,0,0.3,0.1,0.4c0.1,0.1,0.2,0.3,0.3,0.4l0.3,0.3c0.3,0.4,0.6,0.7,0.9,1.1c0.1,0.3,0.3,0.5,0.5,0.7    c0.1,0.1,0.3,0.2,0.4,0.2c0.1,0,0.3-0.1,0.4-0.2c0.1-0.1,0.1-0.3,0-0.5s-0.1-0.4-0.2-0.6s-0.1-0.4-0.2-0.6    c-0.1-0.1-0.1-0.2-0.1-0.4c0-0.3,0.1-0.5,0.2-0.8c0.1-0.2,0.3-0.4,0.4-0.6l0.8-0.8c0.2-0.2,0.4-0.4,0.6-0.5    c0.1-0.1,0.1-0.1,0.2-0.1c0.1,0.1,0.2,0.1,0.2,0.2l0.2,0.2l6.2,6.1c0.2,0.2,0.4,0.4,0.6,0.6c0.1,0.1,0.2,0.3,0.2,0.5    c0,0.2,0,0.3-0.1,0.5c-0.1,0.3-0.3,0.5-0.4,0.7c0,0,0,0.1-0.1,0.1c-0.1,0.1-0.2,0.2-0.2,0.4c-0.1,0.2,0,0.4,0.1,0.5    c0.1,0.1,0.2,0.1,0.3,0.1c0.1,0,0.2,0,0.2-0.1c0.1-0.1,0.2-0.1,0.2-0.2c0.3-0.3,0.6-0.6,0.9-1c0.3-0.3,0.6-0.6,0.9-0.9    s0.7-0.7,1-1s0.7-0.6,1-1c0.1-0.1,0.2-0.2,0.2-0.3c0.1-0.1,0.1-0.3-0.1-0.6C240.6,188.7,240.4,188.6,240.2,188.9" fill="#ffffff" style="fill:#ffffff" />
		<path class="st1" d="M251.3,174.9c-0.2-0.1-0.4-0.1-0.6,0l-0.4,0.4c-0.1,0.1-0.3,0.3-0.4,0.4c-0.1,0.1-0.3,0.1-0.5,0.1    c-1.4-0.2-2.8-0.5-4.1-0.8s-2.7-0.6-4.1-0.9l-2.2-0.5l-2.2-0.5c-0.1,0-0.2,0-0.3,0c-0.1,0-0.3,0.1-0.3,0.2    c-0.1,0.1-0.1,0.2-0.1,0.4c0,0.1,0.1,0.1,0.1,0.2c0.6,1,1.3,2,1.9,2.9l1.9,2.9l1.1,1.7c0.4,0.6,0.8,1.1,1.1,1.7    c0.1,0.1,0.1,0.2,0.2,0.4l0.3,0.5l0.3,0.5c0.1,0.1,0.1,0.2,0.1,0.3c0,0.1,0,0.3,0,0.4c0,0.1-0.1,0.3-0.1,0.4    c-0.1,0.1-0.1,0.3-0.1,0.4c0,0.2,0.1,0.4,0.2,0.5l0,0c0.1,0.1,0.2,0.1,0.3,0.1c0.1,0,0.3-0.1,0.3-0.2c0.1-0.2,0.3-0.4,0.4-0.7    c0.1-0.2,0.2-0.4,0.4-0.6c0.2-0.3,0.5-0.6,0.7-0.9c0.3-0.3,0.5-0.6,0.7-0.9c0.1-0.1,0.1-0.3,0.1-0.4c0-0.1-0.1-0.3-0.2-0.4    c-0.2-0.2-0.5-0.1-0.7,0.1c-0.2,0.2-0.3,0.3-0.5,0.5c-0.1,0.2-0.3,0.3-0.4,0.4c-0.1,0-0.2,0.1-0.3-0.1c-0.1-0.1-0.2-0.2-0.3-0.3    l-0.6-0.8c-0.2-0.3-0.5-0.7-0.8-1.2s-0.6-0.8-0.8-1.3c0.1-0.1,0.1-0.3,0.2-0.4c0.1-0.2,0.2-0.4,0.4-0.6l0.4-0.6l0.3-0.5l0.2-0.3    c0.1-0.2,0.2-0.3,0.4-0.4c0.1-0.1,0.2-0.2,0.3-0.2h0.1l0.4,0.1l1.3,0.3l1.2,0.3l0.9,0.2l0.6,0.1h0.1h0.1c0.1,0.1,0.1,0.2,0.1,0.2    c-0.1,0.2-0.1,0.3-0.2,0.5c-0.1,0.2-0.2,0.3-0.3,0.5c-0.1,0.2-0.1,0.4,0.1,0.6c0.1,0.1,0.3,0.1,0.4,0.1c0.1,0,0.3-0.1,0.4-0.2    c0.2-0.4,0.5-0.7,0.7-1.1s0.4-0.7,0.7-1c0.2-0.2,0.3-0.4,0.5-0.6c0.2-0.2,0.4-0.4,0.6-0.7l0.1-0.2c0.1-0.1,0.1-0.3,0.2-0.4    C251.5,175.2,251.4,175,251.3,174.9 M242.3,176.3c-0.4,0.6-0.7,1-0.9,1.4l-0.5,0.8l-0.1,0.2l-0.7-1.1c-0.2-0.3-0.4-0.6-0.6-0.9    s-0.3-0.5-0.5-0.8s-0.2-0.3-0.3-0.5h0.1l1.1,0.3l1.4,0.4L242.3,176.3" fill="#ffffff" style="fill:#ffffff" />
		<path class="st1" d="M258.4,161.8c-0.2-0.1-0.4,0-0.5,0.2c-0.1,0.1-0.2,0.2-0.3,0.3c-0.3,0.4-0.7,0.7-1.1,0.9    c-0.5,0.2-1,0.3-1.5,0.4c-0.5,0.1-1.1,0.1-1.6,0.1h-1.6c-0.5,0-0.9,0-1.4,0.1c-0.2,0-0.5,0.1-0.7,0.2c0-0.2,0-0.5-0.1-0.8    c-0.1-0.4-0.1-0.8-0.3-1.1c-0.1-0.4-0.3-0.7-0.6-1c-0.2-0.3-0.6-0.6-0.9-0.7c-0.6-0.3-1.2-0.4-1.8-0.4c-0.5,0-1,0.2-1.5,0.4    c-0.4,0.3-0.8,0.6-1.1,1c-0.3,0.3-0.5,0.7-0.7,1.1c-0.2,0.4-0.4,0.8-0.6,1.3s-0.4,0.8-0.6,1.2l-0.7,1.4c-0.1,0.1-0.1,0.2-0.2,0.4    l-0.2,0.4c-0.1,0.1-0.1,0.3-0.1,0.4c0,0.2,0.1,0.4,0.3,0.5c0.2,0.1,0.3,0.1,0.5-0.1c0.1-0.1,0.2-0.2,0.2-0.3l0.2-0.4    c0.1-0.1,0.2-0.2,0.3-0.3c0.1-0.1,0.2-0.1,0.3-0.2c0.2,0,0.3,0,0.4,0.1c0.9,0.4,1.8,0.9,2.7,1.3s1.8,0.9,2.7,1.3l3.3,1.6    c0.2,0.1,0.3,0.2,0.4,0.3c0.1,0.1,0.1,0.3,0.1,0.4c0,0.1,0,0.3,0,0.4c0,0.2-0.1,0.3-0.1,0.5s-0.1,0.3-0.1,0.4    c0,0.2,0.1,0.3,0.2,0.4c0.1,0.1,0.2,0.1,0.3,0.1c0.1,0,0.1,0,0.2,0c0.1-0.1,0.2-0.2,0.2-0.3c0.2-0.3,0.3-0.7,0.4-1    c0.1-0.3,0.3-0.7,0.4-1c0.2-0.4,0.4-0.7,0.6-1.1c0.2-0.4,0.4-0.8,0.6-1.2c0.1-0.2,0.2-0.4,0.2-0.6c0-0.2-0.1-0.4-0.3-0.5    c-0.1-0.1-0.3-0.1-0.4,0.1c-0.1,0.1-0.1,0.2-0.2,0.3c0,0,0,0.1-0.1,0.1c-0.1,0.2-0.3,0.4-0.4,0.6c-0.1,0.1-0.2,0.2-0.3,0.3    c-0.1,0.1-0.2,0.1-0.3,0.1c-0.2,0-0.4-0.1-0.6-0.2l-3.3-1.6c-0.3-0.1-0.4-0.2-0.4-0.2s0-0.1,0.1-0.3c0.1-0.3,0.4-0.6,0.7-0.8    c0.3-0.2,0.6-0.3,1-0.3c0.4-0.1,0.8-0.1,1.2-0.1c0.4,0,0.9,0,1.3,0c1,0.1,2-0.1,2.9-0.4c0.9-0.4,1.7-1,2.3-1.9    c0.1-0.1,0.1-0.2,0.2-0.3c0.1-0.1,0.1-0.2,0.2-0.3c0.1-0.2,0.2-0.4,0.2-0.7v-0.1C258.7,162.1,258.6,161.9,258.4,161.8     M248.5,165.2c-0.1,0.4-0.3,0.8-0.4,1.2c0,0.1-0.1,0.2-0.2,0.4c-0.1,0.1-0.1,0.1-0.1,0.1c-0.1,0-0.2,0-0.2-0.1l-0.4-0.2    c-0.4-0.2-0.9-0.4-1.4-0.7l-1.5-0.7l-0.6-0.2c-0.2-0.1-0.3-0.2-0.4-0.4c0-0.1,0-0.3,0.1-0.7c0.2-0.4,0.4-0.7,0.7-1    c0.2-0.3,0.5-0.5,0.9-0.6c0.3-0.1,0.6-0.2,0.9-0.2h0.1c0.4,0,0.8,0.1,1.2,0.3c0.4,0.2,0.8,0.4,1.1,0.8c0.2,0.3,0.4,0.6,0.4,0.9    C248.6,164.5,248.6,164.8,248.5,165.2" fill="#ffffff" style="fill:#ffffff" />
		<path class="st1" d="M260.7,150.4c-0.1,0-0.4-0.1-0.5,0.4l-0.3,0.7c-0.1,0.2-0.2,0.4-0.4,0.6c-0.2,0.2-0.4,0.2-0.6,0.2    c-0.2,0-0.4,0-0.6-0.1l-0.5-0.1c-1-0.3-2-0.6-3.1-0.8c-1-0.2-2-0.5-3-0.8l-2.1-0.6c-0.2,0-0.4-0.1-0.6-0.2    c-0.1-0.1-0.2-0.1-0.2-0.2c0-0.1,0.1-0.2,0.1-0.2c0-0.1,0.1-0.2,0.1-0.4c0-0.2,0.1-0.3,0.1-0.5s0.1-0.5,0.2-0.7s0.2-0.5,0.3-0.7    c0.1-0.2,0.2-0.3,0.3-0.5c0.1-0.1,0.2-0.2,0.3-0.2c0.2,0,0.3,0,0.5,0l0.5,0.2c0.2,0.1,0.3,0.1,0.5,0.1c0.2,0,0.4-0.1,0.4-0.3    c0.1-0.2,0-0.5-0.4-0.7c-0.3-0.2-0.6-0.3-0.9-0.4l-1-0.4c-0.3-0.1-0.5-0.2-0.8-0.4l0,0c-0.2-0.1-0.4-0.1-0.5-0.1    c-0.2,0-0.5,0.2-0.5,0.4c0,0.1,0,0.3,0.1,0.4l0.2,0.2c0.1,0.1,0.1,0.2,0.2,0.3c0,0.1,0,0.2,0,0.3c0,0.2-0.1,0.4-0.1,0.5    s-0.1,0.3-0.1,0.5c-0.1,0.6-0.3,1.1-0.4,1.6c-0.1,0.5-0.3,1-0.4,1.6c-0.2,0.6-0.4,1.4-0.6,2.1s-0.4,1.4-0.6,2.1    c0,0.1-0.1,0.2-0.2,0.3c-0.1,0.1-0.1,0.1-0.2,0.1l-0.2,0.1c-0.1,0-0.2,0.1-0.2,0.2c-0.1,0.2-0.1,0.4,0,0.5    c0.1,0.1,0.2,0.2,0.3,0.3c0.1,0.1,0.3,0.2,0.4,0.2l0.4,0.1c0.4,0.2,0.9,0.4,1.3,0.6c0.2,0.2,0.5,0.3,0.8,0.4h0.2    c0.1,0,0.2,0,0.2-0.1c0.1-0.1,0.2-0.2,0.2-0.3c0-0.1-0.1-0.3-0.2-0.5l-0.5-0.5l-0.5-0.4c-0.1-0.1-0.2-0.2-0.3-0.3    c-0.1-0.2-0.2-0.5-0.2-0.8c0-0.3,0-0.5,0.1-0.8l0.3-1.1c0.1-0.3,0.1-0.5,0.2-0.7c0-0.1,0.1-0.2,0.1-0.2c0.1,0,0.2,0,0.3,0.1    l0.3,0.1l8.4,2.2c0.3,0.1,0.5,0.2,0.8,0.3c0.2,0.1,0.3,0.2,0.4,0.3c0.1,0.1,0.2,0.3,0.2,0.4c0,0.3,0,0.5,0,0.8c0,0.1,0,0.1,0,0.2    c0,0.1,0,0.3,0,0.4c0,0.2,0.2,0.4,0.4,0.4c0.2,0.1,0.4,0,0.5-0.2c0,0,0,0,0,0c0-0.1,0.1-0.2,0.1-0.3c0.1-0.4,0.2-0.8,0.3-1.3    c0.1-0.4,0.2-0.8,0.3-1.2c0.1-0.4,0.3-0.9,0.4-1.4c0.1-0.4,0.3-0.9,0.4-1.4c0-0.1,0.1-0.3,0.1-0.4c0-0.1,0-0.3-0.4-0.4" fill="#ffffff" style="fill:#ffffff" />
		<path class="st1" d="M263.4,135.6c0-0.6-0.1-1.1-0.3-1.6c-0.2-0.6-0.5-1.1-0.9-1.5c-0.4-0.3-0.9-0.6-1.4-0.8    c-0.5-0.2-1.1-0.3-1.7-0.4c-0.6-0.1-1.1-0.1-1.6-0.2h-1h-1l-1.3-0.1l-1.4-0.1c-0.4,0-0.8-0.1-1.1-0.1c-0.1,0-0.3-0.1-0.4-0.1    c0-0.1,0-0.2,0-0.3c0-0.2,0-0.4-0.1-0.6c0-0.2-0.1-0.4-0.1-0.6c-0.1-0.2-0.2-0.3-0.5-0.3c-0.2,0-0.4,0.1-0.5,0.3v0.1    c0,0.3,0,0.7,0,1s0,0.6,0,1c0,0.3,0,0.6-0.1,0.9c0,0.3-0.1,0.6-0.1,1c0,0.1,0,0.2,0,0.3c0,0.2,0.2,0.3,0.4,0.3    c0.2,0,0.4-0.1,0.5-0.2c0.1-0.1,0.2-0.3,0.2-0.5c0-0.2,0.1-0.3,0.1-0.5c0-0.1,0.1-0.2,0.1-0.3c0.1-0.1,0.3-0.1,0.4-0.1    c0.3,0,0.6,0,0.8,0l1,0.1l0.9,0.1l3.8,0.2c0.3,0,0.7,0.1,1,0.2c0.5,0.1,1,0.3,1.5,0.5c0.3,0.2,0.7,0.4,0.9,0.8    c0.2,0.3,0.4,0.7,0.5,1.1c0.1,0.5,0.1,1,0.1,1.5c0,0.5-0.1,0.9-0.2,1.3c-0.1,0.4-0.3,0.7-0.6,1c-0.3,0.3-0.7,0.5-1.1,0.6    c-0.6,0.2-1.2,0.2-1.8,0.2h-1.1l-1.1-0.1l-3.3-0.2l-0.6,0l-0.6-0.1l-0.5-0.1c-0.1,0-0.2-0.1-0.3-0.1c-0.1-0.1-0.2-0.2-0.3-0.3    c0-0.2-0.1-0.4-0.1-0.6c0-0.2,0-0.4-0.1-0.6c0-0.2-0.2-0.4-0.5-0.4c-0.2,0-0.4,0.1-0.4,0.3c0,0.1,0,0.3-0.1,0.4c0,0.4,0,0.8,0,1.2    s0,0.8,0,1.2c0,0.4-0.1,0.8-0.1,1.1c-0.1,0.4-0.1,0.8-0.1,1.1c0,0.3,0.1,0.5,0.4,0.6c0,0,0.1,0,0.1,0l0,0c0.1,0,0.2-0.1,0.3-0.2    c0.1-0.1,0.1-0.2,0.1-0.3c0-0.1,0-0.2,0.1-0.3c0-0.1,0-0.2,0-0.2v-0.2c0-0.1,0.1-0.3,0.2-0.4c0.1-0.1,0.3-0.2,0.4-0.2    c0.2,0,0.4,0,0.6,0h0.6c1,0.1,2,0.1,3,0.2c1,0.1,2,0.2,3,0.2h0.7h0.7c0.6,0,1.3-0.2,1.8-0.4c0.5-0.2,0.9-0.6,1.2-1    c0.3-0.4,0.6-1,0.7-1.5c0.2-0.6,0.3-1.2,0.3-1.8c0-0.5,0-1.1,0-1.6" fill="#ffffff" style="fill:#ffffff" />
	</g>
</g>
</svg>